# File produced by Open Asset Import Library (http://www.assimp.sf.net)
# (assimp v3.1.187496374)

mtllib 2UCubeSat.obj.mtl

# 8 vertex positions
v  2 -4 -2
v  2 4 -2
v  2 -4 2
v  2 4 2
v  -2 -4 -2
v  -2 -4 2
v  -2 4 -2
v  -2 4 2

# 0 UV coordinates

# 6 vertex normals
vn 1 0 0
vn -1 0 0
vn 0 0 1
vn 0 1 0
vn 0 0 -1
vn 0 -1 0

# Mesh 'CATIA' with 12 faces
g CATIA
usemtl DefaultMaterial
f  1//1 2//1 3//1
f  3//1 2//1 4//1
f  5//2 6//2 7//2
f  7//2 6//2 8//2
f  3//3 4//3 6//3
f  6//3 4//3 8//3
f  7//4 8//4 2//4
f  2//4 8//4 4//4
f  2//5 1//5 7//5
f  7//5 1//5 5//5
f  6//6 5//6 3//6
f  3//6 5//6 1//6

