solid CATIA STL
  facet normal  0.000000e+000  0.000000e+000 -1.000000e+000
    outer loop
      vertex  1.200000e+001 -4.000000e+000 -2.500000e+000
      vertex  0.000000e+000 -4.000000e+000 -2.500000e+000
      vertex  1.200000e+001  0.000000e+000 -2.500000e+000
    endloop
  endfacet
  facet normal  -0.000000e+000  0.000000e+000 -1.000000e+000
    outer loop
      vertex  1.200000e+001  0.000000e+000 -2.500000e+000
      vertex  0.000000e+000 -4.000000e+000 -2.500000e+000
      vertex  0.000000e+000  4.000000e+000 -2.500000e+000
    endloop
  endfacet
  facet normal  0.000000e+000  0.000000e+000 -1.000000e+000
    outer loop
      vertex  1.200000e+001  0.000000e+000 -2.500000e+000
      vertex  0.000000e+000  4.000000e+000 -2.500000e+000
      vertex  1.200000e+001  4.000000e+000 -2.500000e+000
    endloop
  endfacet
  facet normal -1.000000e+000  0.000000e+000  0.000000e+000
    outer loop
      vertex  0.000000e+000 -1.767767e+000  1.767767e+000
      vertex  0.000000e+000  1.530808e-016  2.500000e+000
      vertex  0.000000e+000 -2.500000e+000  3.061617e-016
    endloop
  endfacet
  facet normal -1.000000e+000  0.000000e+000  0.000000e+000
    outer loop
      vertex  0.000000e+000 -4.000000e+000 -2.500000e+000
      vertex  0.000000e+000 -4.000000e+000 -2.266215e-015
      vertex  0.000000e+000 -2.666667e+000 -3.265725e-016
    endloop
  endfacet
  facet normal -1.000000e+000  0.000000e+000  -0.000000e+000
    outer loop
      vertex  0.000000e+000 -4.000000e+000 -2.500000e+000
      vertex  0.000000e+000 -2.666667e+000 -3.265725e-016
      vertex  0.000000e+000 -2.500000e+000  3.061617e-016
    endloop
  endfacet
  facet normal -1.000000e+000  0.000000e+000  -0.000000e+000
    outer loop
      vertex  0.000000e+000 -4.000000e+000 -2.500000e+000
      vertex  0.000000e+000 -2.500000e+000  3.061617e-016
      vertex  0.000000e+000  1.530808e-016  2.500000e+000
    endloop
  endfacet
  facet normal -1.000000e+000  0.000000e+000  -0.000000e+000
    outer loop
      vertex  0.000000e+000 -4.000000e+000 -2.500000e+000
      vertex  0.000000e+000  1.530808e-016  2.500000e+000
      vertex  0.000000e+000  1.767767e+000  1.767767e+000
    endloop
  endfacet
  facet normal -1.000000e+000  0.000000e+000  -0.000000e+000
    outer loop
      vertex  0.000000e+000 -4.000000e+000 -2.500000e+000
      vertex  0.000000e+000  1.767767e+000  1.767767e+000
      vertex  0.000000e+000  2.500000e+000  0.000000e+000
    endloop
  endfacet
  facet normal -1.000000e+000  0.000000e+000  -0.000000e+000
    outer loop
      vertex  0.000000e+000 -4.000000e+000 -2.500000e+000
      vertex  0.000000e+000  2.500000e+000  0.000000e+000
      vertex  0.000000e+000  2.666667e+000  0.000000e+000
    endloop
  endfacet
  facet normal -1.000000e+000  0.000000e+000  -0.000000e+000
    outer loop
      vertex  0.000000e+000 -4.000000e+000 -2.500000e+000
      vertex  0.000000e+000  2.666667e+000  0.000000e+000
      vertex  0.000000e+000  4.000000e+000  0.000000e+000
    endloop
  endfacet
  facet normal -1.000000e+000  0.000000e+000  -0.000000e+000
    outer loop
      vertex  0.000000e+000 -4.000000e+000 -2.500000e+000
      vertex  0.000000e+000  4.000000e+000  0.000000e+000
      vertex  0.000000e+000  4.000000e+000 -2.500000e+000
    endloop
  endfacet
  facet normal -1.000000e+000  0.000000e+000  -0.000000e+000
    outer loop
      vertex  0.000000e+000 -3.236068e+000  2.351141e+000
      vertex  0.000000e+000 -1.236068e+000  3.804226e+000
      vertex  0.000000e+000 -8.240453e-001  2.536151e+000
    endloop
  endfacet
  facet normal -1.000000e+000  0.000000e+000  0.000000e+000
    outer loop
      vertex  0.000000e+000 -8.240453e-001  2.536151e+000
      vertex  0.000000e+000 -1.236068e+000  3.804226e+000
      vertex  0.000000e+000  1.236068e+000  3.804226e+000
    endloop
  endfacet
  facet normal -1.000000e+000  0.000000e+000  0.000000e+000
    outer loop
      vertex  0.000000e+000 -8.240453e-001  2.536151e+000
      vertex  0.000000e+000  1.236068e+000  3.804226e+000
      vertex  0.000000e+000  8.240453e-001  2.536151e+000
    endloop
  endfacet
  facet normal -1.000000e+000  0.000000e+000  0.000000e+000
    outer loop
      vertex  0.000000e+000  8.240453e-001  2.536151e+000
      vertex  0.000000e+000  1.236068e+000  3.804226e+000
      vertex  0.000000e+000  3.236068e+000  2.351141e+000
    endloop
  endfacet
  facet normal -1.000000e+000  -0.000000e+000  0.000000e+000
    outer loop
      vertex  0.000000e+000  8.240453e-001  2.536151e+000
      vertex  0.000000e+000  3.236068e+000  2.351141e+000
      vertex  0.000000e+000  2.157379e+000  1.567427e+000
    endloop
  endfacet
  facet normal -1.000000e+000  0.000000e+000  0.000000e+000
    outer loop
      vertex  0.000000e+000 -8.240453e-001  2.536151e+000
      vertex  0.000000e+000 -2.157379e+000  1.567427e+000
      vertex  0.000000e+000 -3.236068e+000  2.351141e+000
    endloop
  endfacet
  facet normal -1.000000e+000  0.000000e+000  0.000000e+000
    outer loop
      vertex  0.000000e+000 -3.236068e+000  2.351141e+000
      vertex  0.000000e+000 -2.157379e+000  1.567427e+000
      vertex  0.000000e+000 -2.666667e+000 -3.265725e-016
    endloop
  endfacet
  facet normal -1.000000e+000  -0.000000e+000  0.000000e+000
    outer loop
      vertex  0.000000e+000 -3.236068e+000  2.351141e+000
      vertex  0.000000e+000 -2.666667e+000 -3.265725e-016
      vertex  0.000000e+000 -4.000000e+000 -2.266215e-015
    endloop
  endfacet
  facet normal -1.000000e+000  0.000000e+000  0.000000e+000
    outer loop
      vertex  0.000000e+000  2.666667e+000  0.000000e+000
      vertex  0.000000e+000  2.157379e+000  1.567427e+000
      vertex  0.000000e+000  4.000000e+000  0.000000e+000
    endloop
  endfacet
  facet normal -1.000000e+000  0.000000e+000  0.000000e+000
    outer loop
      vertex  0.000000e+000  4.000000e+000  0.000000e+000
      vertex  0.000000e+000  2.157379e+000  1.567427e+000
      vertex  0.000000e+000  3.236068e+000  2.351141e+000
    endloop
  endfacet
  facet normal  1.000000e+000  0.000000e+000  0.000000e+000
    outer loop
      vertex  1.200000e+001  4.000000e+000 -2.500000e+000
      vertex  1.200000e+001  1.767767e+000 -1.767767e+000
      vertex  1.200000e+001  0.000000e+000 -2.500000e+000
    endloop
  endfacet
  facet normal  1.000000e+000  0.000000e+000  0.000000e+000
    outer loop
      vertex  1.200000e+001  1.767767e+000 -1.767767e+000
      vertex  1.200000e+001  2.666667e+000  6.531449e-016
      vertex  1.200000e+001  2.500000e+000  0.000000e+000
    endloop
  endfacet
  facet normal  1.000000e+000  0.000000e+000  0.000000e+000
    outer loop
      vertex  1.200000e+001 -2.666667e+000  0.000000e+000
      vertex  1.200000e+001 -1.767767e+000 -1.767767e+000
      vertex  1.200000e+001 -2.500000e+000  3.061617e-016
    endloop
  endfacet
  facet normal  1.000000e+000  0.000000e+000  -0.000000e+000
    outer loop
      vertex  1.200000e+001  8.240453e-001  2.536151e+000
      vertex  1.200000e+001  2.157379e+000  1.567427e+000
      vertex  1.200000e+001  3.236068e+000  2.351141e+000
    endloop
  endfacet
  facet normal  1.000000e+000  0.000000e+000  0.000000e+000
    outer loop
      vertex  1.200000e+001  3.236068e+000  2.351141e+000
      vertex  1.200000e+001  2.157379e+000  1.567427e+000
      vertex  1.200000e+001  2.666667e+000  6.531449e-016
    endloop
  endfacet
  facet normal  1.000000e+000  0.000000e+000  0.000000e+000
    outer loop
      vertex  1.200000e+001  3.236068e+000  2.351141e+000
      vertex  1.200000e+001  2.666667e+000  6.531449e-016
      vertex  1.200000e+001  4.000000e+000  4.532431e-015
    endloop
  endfacet
  facet normal  1.000000e+000  0.000000e+000  0.000000e+000
    outer loop
      vertex  1.200000e+001  4.000000e+000  4.532431e-015
      vertex  1.200000e+001  2.666667e+000  6.531449e-016
      vertex  1.200000e+001  1.767767e+000 -1.767767e+000
    endloop
  endfacet
  facet normal  1.000000e+000  -0.000000e+000  0.000000e+000
    outer loop
      vertex  1.200000e+001  4.000000e+000  4.532431e-015
      vertex  1.200000e+001  1.767767e+000 -1.767767e+000
      vertex  1.200000e+001  4.000000e+000 -2.500000e+000
    endloop
  endfacet
  facet normal  1.000000e+000  0.000000e+000  0.000000e+000
    outer loop
      vertex  1.200000e+001  3.236068e+000  2.351141e+000
      vertex  1.200000e+001  1.236068e+000  3.804226e+000
      vertex  1.200000e+001  8.240453e-001  2.536151e+000
    endloop
  endfacet
  facet normal  1.000000e+000  0.000000e+000  -0.000000e+000
    outer loop
      vertex  1.200000e+001  8.240453e-001  2.536151e+000
      vertex  1.200000e+001  1.236068e+000  3.804226e+000
      vertex  1.200000e+001 -1.236068e+000  3.804226e+000
    endloop
  endfacet
  facet normal  1.000000e+000  0.000000e+000  0.000000e+000
    outer loop
      vertex  1.200000e+001  8.240453e-001  2.536151e+000
      vertex  1.200000e+001 -1.236068e+000  3.804226e+000
      vertex  1.200000e+001 -8.240453e-001  2.536151e+000
    endloop
  endfacet
  facet normal  1.000000e+000  0.000000e+000  0.000000e+000
    outer loop
      vertex  1.200000e+001 -8.240453e-001  2.536151e+000
      vertex  1.200000e+001 -1.236068e+000  3.804226e+000
      vertex  1.200000e+001 -3.236068e+000  2.351141e+000
    endloop
  endfacet
  facet normal  1.000000e+000  -0.000000e+000  0.000000e+000
    outer loop
      vertex  1.200000e+001 -8.240453e-001  2.536151e+000
      vertex  1.200000e+001 -3.236068e+000  2.351141e+000
      vertex  1.200000e+001 -2.157379e+000  1.567427e+000
    endloop
  endfacet
  facet normal  1.000000e+000  0.000000e+000  0.000000e+000
    outer loop
      vertex  1.200000e+001  0.000000e+000 -2.500000e+000
      vertex  1.200000e+001 -1.767767e+000 -1.767767e+000
      vertex  1.200000e+001 -4.000000e+000 -2.500000e+000
    endloop
  endfacet
  facet normal  1.000000e+000  0.000000e+000  0.000000e+000
    outer loop
      vertex  1.200000e+001 -4.000000e+000 -2.500000e+000
      vertex  1.200000e+001 -1.767767e+000 -1.767767e+000
      vertex  1.200000e+001 -2.666667e+000  0.000000e+000
    endloop
  endfacet
  facet normal  1.000000e+000  0.000000e+000  0.000000e+000
    outer loop
      vertex  1.200000e+001 -4.000000e+000 -2.500000e+000
      vertex  1.200000e+001 -2.666667e+000  0.000000e+000
      vertex  1.200000e+001 -4.000000e+000  0.000000e+000
    endloop
  endfacet
  facet normal  1.000000e+000  0.000000e+000  0.000000e+000
    outer loop
      vertex  1.200000e+001 -4.000000e+000  0.000000e+000
      vertex  1.200000e+001 -2.666667e+000  0.000000e+000
      vertex  1.200000e+001 -2.157379e+000  1.567427e+000
    endloop
  endfacet
  facet normal  1.000000e+000  0.000000e+000  0.000000e+000
    outer loop
      vertex  1.200000e+001 -4.000000e+000  0.000000e+000
      vertex  1.200000e+001 -2.157379e+000  1.567427e+000
      vertex  1.200000e+001 -3.236068e+000  2.351141e+000
    endloop
  endfacet
  facet normal  0.000000e+000  0.000000e+000  1.000000e+000
    outer loop
      vertex  0.000000e+000  2.500000e+000  0.000000e+000
      vertex  1.200000e+001  2.500000e+000  0.000000e+000
      vertex  0.000000e+000  2.666667e+000  0.000000e+000
    endloop
  endfacet
  facet normal -5.442875e-017 -3.918868e-015  1.000000e+000
    outer loop
      vertex  0.000000e+000  2.666667e+000  0.000000e+000
      vertex  1.200000e+001  2.500000e+000  0.000000e+000
      vertex  1.200000e+001  2.666667e+000  6.531449e-016
    endloop
  endfacet
  facet normal  0.000000e+000  1.000000e+000  0.000000e+000
    outer loop
      vertex  0.000000e+000  4.000000e+000 -2.500000e+000
      vertex  0.000000e+000  4.000000e+000  0.000000e+000
      vertex  1.200000e+001  4.000000e+000 -2.500000e+000
    endloop
  endfacet
  facet normal  0.000000e+000  1.000000e+000  -0.000000e+000
    outer loop
      vertex  1.200000e+001  4.000000e+000 -2.500000e+000
      vertex  0.000000e+000  4.000000e+000  0.000000e+000
      vertex  1.200000e+001  4.000000e+000  4.532431e-015
    endloop
  endfacet
  facet normal -2.721437e-017 -3.796403e-015  1.000000e+000
    outer loop
      vertex  0.000000e+000 -2.666667e+000 -3.265725e-016
      vertex  1.200000e+001 -2.666667e+000  0.000000e+000
      vertex  0.000000e+000 -2.500000e+000  3.061617e-016
    endloop
  endfacet
  facet normal  0.000000e+000 -1.836969e-015  1.000000e+000
    outer loop
      vertex  0.000000e+000 -2.500000e+000  3.061617e-016
      vertex  1.200000e+001 -2.666667e+000  0.000000e+000
      vertex  1.200000e+001 -2.500000e+000  3.061617e-016
    endloop
  endfacet
  facet normal  0.000000e+000 -1.000000e+000  -0.000000e+000
    outer loop
      vertex  1.200000e+001 -4.000000e+000 -2.500000e+000
      vertex  1.200000e+001 -4.000000e+000  0.000000e+000
      vertex  0.000000e+000 -4.000000e+000 -2.500000e+000
    endloop
  endfacet
  facet normal  0.000000e+000 -1.000000e+000  0.000000e+000
    outer loop
      vertex  0.000000e+000 -4.000000e+000 -2.500000e+000
      vertex  1.200000e+001 -4.000000e+000  0.000000e+000
      vertex  0.000000e+000 -4.000000e+000 -2.266215e-015
    endloop
  endfacet
  facet normal -2.047815e-003 -3.826826e-001 -9.238777e-001
    outer loop
      vertex  1.200000e+001  0.000000e+000 -2.500000e+000
      vertex  8.000000e+001 -4.727989e-001 -2.454885e+000
      vertex  1.200000e+001 -1.767767e+000 -1.767767e+000
    endloop
  endfacet
  facet normal  1.727991e-003  1.542488e-001 -9.880306e-001
    outer loop
      vertex  8.000000e+001  1.198564e+000 -2.193956e+000
      vertex  8.000000e+001 -4.727989e-001 -2.454885e+000
      vertex  1.200000e+001  0.000000e+000 -2.500000e+000
    endloop
  endfacet
  facet normal -2.587095e-003  3.826821e-001 -9.238764e-001
    outer loop
      vertex  8.000000e+001  1.198564e+000 -2.193956e+000
      vertex  1.200000e+001  0.000000e+000 -2.500000e+000
      vertex  1.200000e+001  1.767767e+000 -1.767767e+000
    endloop
  endfacet
  facet normal  1.303724e-003  6.944809e-001 -7.195098e-001
    outer loop
      vertex  8.000000e+001  1.198564e+000 -2.193956e+000
      vertex  1.200000e+001  1.767767e+000 -1.767767e+000
      vertex  8.000000e+001  2.150164e+000 -1.275459e+000
    endloop
  endfacet
  facet normal -3.508137e-003  9.643762e-001 -2.645116e-001
    outer loop
      vertex  8.000000e+001  2.150164e+000 -1.275459e+000
      vertex  1.200000e+001  1.767767e+000 -1.767767e+000
      vertex  8.000000e+001  2.500000e+000 -6.123234e-016
    endloop
  endfacet
  facet normal -3.445971e-018  9.238796e-001 -3.826834e-001
    outer loop
      vertex  8.000000e+001  2.500000e+000 -6.123234e-016
      vertex  1.200000e+001  1.767767e+000 -1.767767e+000
      vertex  1.200000e+001  2.500000e+000  0.000000e+000
    endloop
  endfacet
  facet normal  0.000000e+000 -9.410305e-001 -3.383216e-001
    outer loop
      vertex  8.000000e+001 -2.500000e+000  3.061617e-016
      vertex  1.200000e+001 -2.500000e+000  3.061617e-016
      vertex  8.000000e+001 -1.927693e+000 -1.591855e+000
    endloop
  endfacet
  facet normal -1.182841e-003 -9.238788e-001 -3.826832e-001
    outer loop
      vertex  8.000000e+001 -1.927693e+000 -1.591855e+000
      vertex  1.200000e+001 -2.500000e+000  3.061617e-016
      vertex  1.200000e+001 -1.767767e+000 -1.767767e+000
    endloop
  endfacet
  facet normal  1.025068e-003 -5.101833e-001 -8.600651e-001
    outer loop
      vertex  8.000000e+001 -1.927693e+000 -1.591855e+000
      vertex  1.200000e+001 -1.767767e+000 -1.767767e+000
      vertex  8.000000e+001 -4.727989e-001 -2.454885e+000
    endloop
  endfacet
  facet normal -1.740644e-003  3.826828e-001  9.238781e-001
    outer loop
      vertex  0.000000e+000  1.767767e+000  1.767767e+000
      vertex  0.000000e+000  1.530808e-016  2.500000e+000
      vertex  8.000000e+001  4.727989e-001  2.454885e+000
    endloop
  endfacet
  facet normal  3.046503e-018  9.410305e-001  3.383216e-001
    outer loop
      vertex  8.000000e+001  2.500000e+000 -6.123234e-016
      vertex  1.200000e+001  2.500000e+000  0.000000e+000
      vertex  8.000000e+001  1.927693e+000  1.591855e+000
    endloop
  endfacet
  facet normal  1.468793e-003 -1.542489e-001  9.880309e-001
    outer loop
      vertex  8.000000e+001 -1.198564e+000  2.193956e+000
      vertex  8.000000e+001  4.727989e-001  2.454885e+000
      vertex  0.000000e+000  1.530808e-016  2.500000e+000
    endloop
  endfacet
  facet normal -2.199033e-003 -3.826825e-001  9.238773e-001
    outer loop
      vertex  8.000000e+001 -1.198564e+000  2.193956e+000
      vertex  0.000000e+000  1.530808e-016  2.500000e+000
      vertex  0.000000e+000 -1.767767e+000  1.767767e+000
    endloop
  endfacet
  facet normal  1.108165e-003 -6.944811e-001  7.195101e-001
    outer loop
      vertex  8.000000e+001 -1.198564e+000  2.193956e+000
      vertex  0.000000e+000 -1.767767e+000  1.767767e+000
      vertex  8.000000e+001 -2.150164e+000  1.275459e+000
    endloop
  endfacet
  facet normal -2.061127e-003 -9.238775e-001  3.826826e-001
    outer loop
      vertex  0.000000e+000 -1.767767e+000  1.767767e+000
      vertex  0.000000e+000 -2.500000e+000  3.061617e-016
      vertex  8.000000e+001 -2.150164e+000  1.275459e+000
    endloop
  endfacet
  facet normal  0.000000e+000 -9.643821e-001  2.645132e-001
    outer loop
      vertex  8.000000e+001 -2.150164e+000  1.275459e+000
      vertex  0.000000e+000 -2.500000e+000  3.061617e-016
      vertex  1.200000e+001 -2.500000e+000  3.061617e-016
    endloop
  endfacet
  facet normal  0.000000e+000 -9.643821e-001  2.645132e-001
    outer loop
      vertex  8.000000e+001 -2.150164e+000  1.275459e+000
      vertex  1.200000e+001 -2.500000e+000  3.061617e-016
      vertex  8.000000e+001 -2.500000e+000  3.061617e-016
    endloop
  endfacet
  facet normal  -0.000000e+000  9.410305e-001  3.383216e-001
    outer loop
      vertex  1.200000e+001  2.500000e+000  0.000000e+000
      vertex  0.000000e+000  2.500000e+000  0.000000e+000
      vertex  8.000000e+001  1.927693e+000  1.591855e+000
    endloop
  endfacet
  facet normal -1.005415e-003  9.238791e-001  3.826833e-001
    outer loop
      vertex  8.000000e+001  1.927693e+000  1.591855e+000
      vertex  0.000000e+000  2.500000e+000  0.000000e+000
      vertex  0.000000e+000  1.767767e+000  1.767767e+000
    endloop
  endfacet
  facet normal  8.713080e-004  5.101833e-001  8.600652e-001
    outer loop
      vertex  8.000000e+001  1.927693e+000  1.591855e+000
      vertex  0.000000e+000  1.767767e+000  1.767767e+000
      vertex  8.000000e+001  4.727989e-001  2.454885e+000
    endloop
  endfacet
  facet normal  0.000000e+000 -5.877852e-001 -8.090170e-001
    outer loop
      vertex  1.200000e+001  8.240453e-001  2.536151e+000
      vertex  0.000000e+000  2.157379e+000  1.567427e+000
      vertex  1.200000e+001  2.157379e+000  1.567427e+000
    endloop
  endfacet
  facet normal  -0.000000e+000 -9.510565e-001 -3.090170e-001
    outer loop
      vertex  1.200000e+001  2.157379e+000  1.567427e+000
      vertex  0.000000e+000  2.157379e+000  1.567427e+000
      vertex  0.000000e+000  2.666667e+000  0.000000e+000
    endloop
  endfacet
  facet normal  1.681941e-017 -9.510565e-001 -3.090170e-001
    outer loop
      vertex  1.200000e+001  2.157379e+000  1.567427e+000
      vertex  0.000000e+000  2.666667e+000  0.000000e+000
      vertex  1.200000e+001  2.666667e+000  6.531449e-016
    endloop
  endfacet
  facet normal  -0.000000e+000 -5.877852e-001 -8.090170e-001
    outer loop
      vertex  0.000000e+000  2.157379e+000  1.567427e+000
      vertex  1.200000e+001  8.240453e-001  2.536151e+000
      vertex  0.000000e+000  8.240453e-001  2.536151e+000
    endloop
  endfacet
  facet normal  0.000000e+000  0.000000e+000 -1.000000e+000
    outer loop
      vertex  0.000000e+000  8.240453e-001  2.536151e+000
      vertex  1.200000e+001  8.240453e-001  2.536151e+000
      vertex  1.200000e+001 -8.240453e-001  2.536151e+000
    endloop
  endfacet
  facet normal  0.000000e+000  0.000000e+000 -1.000000e+000
    outer loop
      vertex  0.000000e+000  8.240453e-001  2.536151e+000
      vertex  1.200000e+001 -8.240453e-001  2.536151e+000
      vertex  0.000000e+000 -8.240453e-001  2.536151e+000
    endloop
  endfacet
  facet normal  0.000000e+000  5.877852e-001 -8.090170e-001
    outer loop
      vertex  0.000000e+000 -8.240453e-001  2.536151e+000
      vertex  1.200000e+001 -8.240453e-001  2.536151e+000
      vertex  1.200000e+001 -2.157379e+000  1.567427e+000
    endloop
  endfacet
  facet normal  0.000000e+000  5.877852e-001 -8.090170e-001
    outer loop
      vertex  0.000000e+000 -8.240453e-001  2.536151e+000
      vertex  1.200000e+001 -2.157379e+000  1.567427e+000
      vertex  0.000000e+000 -2.157379e+000  1.567427e+000
    endloop
  endfacet
  facet normal  0.000000e+000  9.510565e-001 -3.090170e-001
    outer loop
      vertex  0.000000e+000 -2.157379e+000  1.567427e+000
      vertex  1.200000e+001 -2.157379e+000  1.567427e+000
      vertex  1.200000e+001 -2.666667e+000  0.000000e+000
    endloop
  endfacet
  facet normal  8.409705e-018  9.510565e-001 -3.090170e-001
    outer loop
      vertex  0.000000e+000 -2.157379e+000  1.567427e+000
      vertex  1.200000e+001 -2.666667e+000  0.000000e+000
      vertex  0.000000e+000 -2.666667e+000 -3.265725e-016
    endloop
  endfacet
  facet normal -1.167165e-016  9.510565e-001  3.090170e-001
    outer loop
      vertex  1.200000e+001  4.000000e+000  4.532431e-015
      vertex  0.000000e+000  4.000000e+000  0.000000e+000
      vertex  1.200000e+001  3.236068e+000  2.351141e+000
    endloop
  endfacet
  facet normal  0.000000e+000  9.510565e-001  3.090170e-001
    outer loop
      vertex  1.200000e+001  3.236068e+000  2.351141e+000
      vertex  0.000000e+000  4.000000e+000  0.000000e+000
      vertex  0.000000e+000  3.236068e+000  2.351141e+000
    endloop
  endfacet
  facet normal  -0.000000e+000  5.877853e-001  8.090169e-001
    outer loop
      vertex  1.200000e+001  3.236068e+000  2.351141e+000
      vertex  0.000000e+000  3.236068e+000  2.351141e+000
      vertex  1.200000e+001  1.236068e+000  3.804226e+000
    endloop
  endfacet
  facet normal  0.000000e+000  5.877853e-001  8.090169e-001
    outer loop
      vertex  1.200000e+001  1.236068e+000  3.804226e+000
      vertex  0.000000e+000  3.236068e+000  2.351141e+000
      vertex  0.000000e+000  1.236068e+000  3.804226e+000
    endloop
  endfacet
  facet normal  -0.000000e+000  0.000000e+000  1.000000e+000
    outer loop
      vertex  1.200000e+001  1.236068e+000  3.804226e+000
      vertex  0.000000e+000  1.236068e+000  3.804226e+000
      vertex  1.200000e+001 -1.236068e+000  3.804226e+000
    endloop
  endfacet
  facet normal  0.000000e+000  0.000000e+000  1.000000e+000
    outer loop
      vertex  1.200000e+001 -1.236068e+000  3.804226e+000
      vertex  0.000000e+000  1.236068e+000  3.804226e+000
      vertex  0.000000e+000 -1.236068e+000  3.804226e+000
    endloop
  endfacet
  facet normal  0.000000e+000 -5.877853e-001  8.090169e-001
    outer loop
      vertex  1.200000e+001 -1.236068e+000  3.804226e+000
      vertex  0.000000e+000 -1.236068e+000  3.804226e+000
      vertex  1.200000e+001 -3.236068e+000  2.351141e+000
    endloop
  endfacet
  facet normal  0.000000e+000 -5.877853e-001  8.090169e-001
    outer loop
      vertex  1.200000e+001 -3.236068e+000  2.351141e+000
      vertex  0.000000e+000 -1.236068e+000  3.804226e+000
      vertex  0.000000e+000 -3.236068e+000  2.351141e+000
    endloop
  endfacet
  facet normal  0.000000e+000 -9.510565e-001  3.090170e-001
    outer loop
      vertex  1.200000e+001 -3.236068e+000  2.351141e+000
      vertex  0.000000e+000 -3.236068e+000  2.351141e+000
      vertex  1.200000e+001 -4.000000e+000  0.000000e+000
    endloop
  endfacet
  facet normal -5.835826e-017 -9.510565e-001  3.090170e-001
    outer loop
      vertex  1.200000e+001 -4.000000e+000  0.000000e+000
      vertex  0.000000e+000 -3.236068e+000  2.351141e+000
      vertex  0.000000e+000 -4.000000e+000 -2.266215e-015
    endloop
  endfacet
  facet normal  4.189961e-001  5.695921e-001  7.071118e-001
    outer loop
      vertex  8.000000e+001  1.927693e+000  1.591855e+000
      vertex  8.176777e+001  4.976963e-001  1.696260e+000
      vertex  8.176777e+001  1.551361e+000  8.475126e-001
    endloop
  endfacet
  facet normal  3.936175e-001 -9.844978e-002  9.139873e-001
    outer loop
      vertex  8.000000e+001  4.727989e-001  2.454885e+000
      vertex  8.176777e+001 -8.475126e-001  1.551361e+000
      vertex  8.176777e+001  4.976963e-001  1.696260e+000
    endloop
  endfacet
  facet normal  3.403051e-001  4.797333e-001  8.087326e-001
    outer loop
      vertex  8.000000e+001  4.727989e-001  2.454885e+000
      vertex  8.176777e+001  4.976963e-001  1.696260e+000
      vertex  8.000000e+001  1.927693e+000  1.591855e+000
    endloop
  endfacet
  facet normal  3.631732e-001 -1.437172e-001  9.205708e-001
    outer loop
      vertex  8.000000e+001 -1.198564e+000  2.193956e+000
      vertex  8.176777e+001 -8.475126e-001  1.551361e+000
      vertex  8.000000e+001  4.727989e-001  2.454885e+000
    endloop
  endfacet
  facet normal  3.242639e-001  8.901834e-001  3.200409e-001
    outer loop
      vertex  8.000000e+001  2.500000e+000 -6.123234e-016
      vertex  8.000000e+001  1.927693e+000  1.591855e+000
      vertex  8.176777e+001  1.551361e+000  8.475126e-001
    endloop
  endfacet
  facet normal  4.343410e-001  8.955681e-001  9.646577e-002
    outer loop
      vertex  8.000000e+001  2.500000e+000 -6.123234e-016
      vertex  8.176777e+001  1.551361e+000  8.475126e-001
      vertex  8.176777e+001  1.696260e+000 -4.976963e-001
    endloop
  endfacet
  facet normal  3.420435e-001  9.062145e-001 -2.485588e-001
    outer loop
      vertex  8.000000e+001  2.500000e+000 -6.123234e-016
      vertex  8.176777e+001  1.696260e+000 -4.976963e-001
      vertex  8.000000e+001  2.150164e+000 -1.275459e+000
    endloop
  endfacet
  facet normal  9.124874e-001  3.185977e-001 -2.566366e-001
    outer loop
      vertex  8.250000e+001 -7.339087e-017  1.343411e-016
      vertex  8.176777e+001  8.475126e-001 -1.551361e+000
      vertex  8.176777e+001  1.696260e+000 -4.976963e-001
    endloop
  endfacet
  facet normal  9.124874e-001  4.067520e-001  4.381314e-002
    outer loop
      vertex  8.250000e+001 -7.339087e-017  1.343411e-016
      vertex  8.176777e+001  1.696260e+000 -4.976963e-001
      vertex  8.176777e+001  1.551361e+000  8.475126e-001
    endloop
  endfacet
  facet normal  9.124874e-001  2.566366e-001  3.185977e-001
    outer loop
      vertex  8.250000e+001 -7.339087e-017  1.343411e-016
      vertex  8.176777e+001  1.551361e+000  8.475126e-001
      vertex  8.176777e+001  4.976963e-001  1.696260e+000
    endloop
  endfacet
  facet normal  9.124874e-001 -4.381314e-002  4.067520e-001
    outer loop
      vertex  8.250000e+001 -7.339087e-017  1.343411e-016
      vertex  8.176777e+001  4.976963e-001  1.696260e+000
      vertex  8.176777e+001 -8.475126e-001  1.551361e+000
    endloop
  endfacet
  facet normal  3.709581e-001  6.449300e-001 -6.681731e-001
    outer loop
      vertex  8.000000e+001  1.198564e+000 -2.193956e+000
      vertex  8.000000e+001  2.150164e+000 -1.275459e+000
      vertex  8.176777e+001  8.475126e-001 -1.551361e+000
    endloop
  endfacet
  facet normal  4.297633e-001  7.031818e-001 -5.664264e-001
    outer loop
      vertex  8.176777e+001  8.475126e-001 -1.551361e+000
      vertex  8.000000e+001  2.150164e+000 -1.275459e+000
      vertex  8.176777e+001  1.696260e+000 -4.976963e-001
    endloop
  endfacet
  facet normal  4.189961e-001 -5.695921e-001 -7.071118e-001
    outer loop
      vertex  8.000000e+001 -1.927693e+000 -1.591855e+000
      vertex  8.176777e+001 -4.976963e-001 -1.696260e+000
      vertex  8.176777e+001 -1.551361e+000 -8.475126e-001
    endloop
  endfacet
  facet normal  3.936175e-001  9.844978e-002 -9.139873e-001
    outer loop
      vertex  8.000000e+001 -4.727989e-001 -2.454885e+000
      vertex  8.176777e+001  8.475126e-001 -1.551361e+000
      vertex  8.176777e+001 -4.976963e-001 -1.696260e+000
    endloop
  endfacet
  facet normal  3.403051e-001 -4.797333e-001 -8.087326e-001
    outer loop
      vertex  8.000000e+001 -4.727989e-001 -2.454885e+000
      vertex  8.176777e+001 -4.976963e-001 -1.696260e+000
      vertex  8.000000e+001 -1.927693e+000 -1.591855e+000
    endloop
  endfacet
  facet normal  3.631732e-001  1.437172e-001 -9.205708e-001
    outer loop
      vertex  8.000000e+001  1.198564e+000 -2.193956e+000
      vertex  8.176777e+001  8.475126e-001 -1.551361e+000
      vertex  8.000000e+001 -4.727989e-001 -2.454885e+000
    endloop
  endfacet
  facet normal  3.242639e-001 -8.901834e-001 -3.200409e-001
    outer loop
      vertex  8.000000e+001 -2.500000e+000  3.061617e-016
      vertex  8.000000e+001 -1.927693e+000 -1.591855e+000
      vertex  8.176777e+001 -1.551361e+000 -8.475126e-001
    endloop
  endfacet
  facet normal  4.343410e-001 -8.955681e-001 -9.646577e-002
    outer loop
      vertex  8.000000e+001 -2.500000e+000  3.061617e-016
      vertex  8.176777e+001 -1.551361e+000 -8.475126e-001
      vertex  8.176777e+001 -1.696260e+000  4.976963e-001
    endloop
  endfacet
  facet normal  3.420435e-001 -9.062145e-001  2.485588e-001
    outer loop
      vertex  8.000000e+001 -2.500000e+000  3.061617e-016
      vertex  8.176777e+001 -1.696260e+000  4.976963e-001
      vertex  8.000000e+001 -2.150164e+000  1.275459e+000
    endloop
  endfacet
  facet normal  9.124874e-001 -3.185977e-001  2.566366e-001
    outer loop
      vertex  8.250000e+001 -7.339087e-017  1.343411e-016
      vertex  8.176777e+001 -8.475126e-001  1.551361e+000
      vertex  8.176777e+001 -1.696260e+000  4.976963e-001
    endloop
  endfacet
  facet normal  9.124874e-001 -4.067520e-001 -4.381314e-002
    outer loop
      vertex  8.250000e+001 -7.339087e-017  1.343411e-016
      vertex  8.176777e+001 -1.696260e+000  4.976963e-001
      vertex  8.176777e+001 -1.551361e+000 -8.475126e-001
    endloop
  endfacet
  facet normal  9.124874e-001 -2.566366e-001 -3.185977e-001
    outer loop
      vertex  8.250000e+001 -7.339087e-017  1.343411e-016
      vertex  8.176777e+001 -1.551361e+000 -8.475126e-001
      vertex  8.176777e+001 -4.976963e-001 -1.696260e+000
    endloop
  endfacet
  facet normal  9.124874e-001  4.381314e-002 -4.067520e-001
    outer loop
      vertex  8.250000e+001 -7.339087e-017  1.343411e-016
      vertex  8.176777e+001 -4.976963e-001 -1.696260e+000
      vertex  8.176777e+001  8.475126e-001 -1.551361e+000
    endloop
  endfacet
  facet normal  3.709581e-001 -6.449300e-001  6.681731e-001
    outer loop
      vertex  8.000000e+001 -1.198564e+000  2.193956e+000
      vertex  8.000000e+001 -2.150164e+000  1.275459e+000
      vertex  8.176777e+001 -8.475126e-001  1.551361e+000
    endloop
  endfacet
  facet normal  4.297633e-001 -7.031818e-001  5.664264e-001
    outer loop
      vertex  8.176777e+001 -8.475126e-001  1.551361e+000
      vertex  8.000000e+001 -2.150164e+000  1.275459e+000
      vertex  8.176777e+001 -1.696260e+000  4.976963e-001
    endloop
  endfacet
endsolid CATIA STL
