solid CATIA STL
  facet normal  1.000000e+000  0.000000e+000 -2.034505e-006
    outer loop
      vertex -1.500000e+001 -1.000000e+001  5.000000e+000
      vertex -1.500000e+001  1.000000e+001  5.000000e+000
      vertex -1.499998e+001 -1.000000e+001  1.250000e+001
    endloop
  endfacet
  facet normal  1.000000e+000  0.000000e+000 -2.034505e-006
    outer loop
      vertex -1.499998e+001 -1.000000e+001  1.250000e+001
      vertex -1.500000e+001  1.000000e+001  5.000000e+000
      vertex -1.499998e+001  1.000000e+001  1.250000e+001
    endloop
  endfacet
  facet normal  0.000000e+000  0.000000e+000 -1.000000e+000
    outer loop
      vertex -7.500000e+000 -1.000000e+001  2.000000e+001
      vertex -7.500000e+000  1.000000e+001  2.000000e+001
      vertex  7.500000e+000 -1.000000e+001  2.000000e+001
    endloop
  endfacet
  facet normal  0.000000e+000  0.000000e+000 -1.000000e+000
    outer loop
      vertex  7.500000e+000 -1.000000e+001  2.000000e+001
      vertex -7.500000e+000  1.000000e+001  2.000000e+001
      vertex  7.500000e+000  1.000000e+001  2.000000e+001
    endloop
  endfacet
  facet normal -9.999999e-001  -0.000000e+000  0.000000e+000
    outer loop
      vertex  1.500000e+001 -1.000000e+001  1.248465e+001
      vertex  1.500000e+001  1.000000e+001  1.248465e+001
      vertex  1.500000e+001 -1.000000e+001  5.000000e+000
    endloop
  endfacet
  facet normal -9.999999e-001  0.000000e+000  0.000000e+000
    outer loop
      vertex  1.500000e+001 -1.000000e+001  5.000000e+000
      vertex  1.500000e+001  1.000000e+001  1.248465e+001
      vertex  1.500000e+001  1.000000e+001  5.000000e+000
    endloop
  endfacet
  facet normal  0.000000e+000  1.000000e+000  -0.000000e+000
    outer loop
      vertex -7.500000e+000  1.000000e+001  2.000000e+001
      vertex -1.037013e+001  1.000000e+001  1.942910e+001
      vertex -1.457107e+001  1.000000e+001  1.957107e+001
    endloop
  endfacet
  facet normal  0.000000e+000  1.000000e+000  0.000000e+000
    outer loop
      vertex -7.500000e+000  1.000000e+001  2.000000e+001
      vertex -1.457107e+001  1.000000e+001  1.957107e+001
      vertex -1.132683e+001  1.000000e+001  2.173880e+001
    endloop
  endfacet
  facet normal  -0.000000e+000  1.000000e+000  0.000000e+000
    outer loop
      vertex -7.500000e+000  1.000000e+001  2.000000e+001
      vertex -1.132683e+001  1.000000e+001  2.173880e+001
      vertex  1.132683e+001  1.000000e+001  2.173880e+001
    endloop
  endfacet
  facet normal  0.000000e+000  1.000000e+000  0.000000e+000
    outer loop
      vertex -7.500000e+000  1.000000e+001  2.000000e+001
      vertex  1.132683e+001  1.000000e+001  2.173880e+001
      vertex  7.500000e+000  1.000000e+001  2.000000e+001
    endloop
  endfacet
  facet normal  0.000000e+000  9.999999e-001  0.000000e+000
    outer loop
      vertex  7.500000e+000  1.000000e+001  2.000000e+001
      vertex  1.132683e+001  1.000000e+001  2.173880e+001
      vertex  1.037013e+001  1.000000e+001  1.942910e+001
    endloop
  endfacet
  facet normal  0.000000e+000  1.000000e+000  0.000000e+000
    outer loop
      vertex  1.037013e+001  1.000000e+001  1.942910e+001
      vertex  1.132683e+001  1.000000e+001  2.173880e+001
      vertex  1.457107e+001  1.000000e+001  1.957107e+001
    endloop
  endfacet
  facet normal  0.000000e+000  1.000000e+000  0.000000e+000
    outer loop
      vertex  1.037013e+001  1.000000e+001  1.942910e+001
      vertex  1.457107e+001  1.000000e+001  1.957107e+001
      vertex  1.280330e+001  1.000000e+001  1.780330e+001
    endloop
  endfacet
  facet normal  -0.000000e+000  1.000000e+000  0.000000e+000
    outer loop
      vertex  1.280330e+001  1.000000e+001  1.780330e+001
      vertex  1.457107e+001  1.000000e+001  1.957107e+001
      vertex  1.673880e+001  1.000000e+001  1.632683e+001
    endloop
  endfacet
  facet normal  0.000000e+000  1.000000e+000  0.000000e+000
    outer loop
      vertex  1.280330e+001  1.000000e+001  1.780330e+001
      vertex  1.673880e+001  1.000000e+001  1.632683e+001
      vertex  1.442910e+001  1.000000e+001  1.537013e+001
    endloop
  endfacet
  facet normal  0.000000e+000  1.000000e+000  0.000000e+000
    outer loop
      vertex  1.442910e+001  1.000000e+001  1.537013e+001
      vertex  1.673880e+001  1.000000e+001  1.632683e+001
      vertex  1.500002e+001  1.000000e+001  1.250000e+001
    endloop
  endfacet
  facet normal  0.000000e+000  1.000000e+000  0.000000e+000
    outer loop
      vertex  1.500002e+001  1.000000e+001  1.250000e+001
      vertex  1.673880e+001  1.000000e+001  1.632683e+001
      vertex  1.750000e+001  1.000000e+001  1.250000e+001
    endloop
  endfacet
  facet normal  0.000000e+000  9.999999e-001  0.000000e+000
    outer loop
      vertex  1.500002e+001  1.000000e+001  1.250000e+001
      vertex  1.750000e+001  1.000000e+001  1.250000e+001
      vertex  1.500000e+001  1.000000e+001  1.248465e+001
    endloop
  endfacet
  facet normal  0.000000e+000  9.999999e-001  0.000000e+000
    outer loop
      vertex  1.500000e+001  1.000000e+001  5.000000e+000
      vertex  1.500000e+001  1.000000e+001  1.248465e+001
      vertex  1.750000e+001  1.000000e+001  5.000000e+000
    endloop
  endfacet
  facet normal  0.000000e+000  1.000000e+000  -0.000000e+000
    outer loop
      vertex  1.750000e+001  1.000000e+001  5.000000e+000
      vertex  1.500000e+001  1.000000e+001  1.248465e+001
      vertex  1.750000e+001  1.000000e+001  1.250000e+001
    endloop
  endfacet
  facet normal  0.000000e+000  1.000000e+000  0.000000e+000
    outer loop
      vertex  1.132683e+001  1.000000e+001  2.173880e+001
      vertex -1.132683e+001  1.000000e+001  2.173880e+001
      vertex  7.500000e+000  1.000000e+001  2.250000e+001
    endloop
  endfacet
  facet normal  0.000000e+000  9.999999e-001  0.000000e+000
    outer loop
      vertex  7.500000e+000  1.000000e+001  2.250000e+001
      vertex -1.132683e+001  1.000000e+001  2.173880e+001
      vertex -7.500000e+000  1.000000e+001  2.250000e+001
    endloop
  endfacet
  facet normal  0.000000e+000  1.000000e+000  0.000000e+000
    outer loop
      vertex -1.457107e+001  1.000000e+001  1.957107e+001
      vertex -1.037013e+001  1.000000e+001  1.942910e+001
      vertex -1.673880e+001  1.000000e+001  1.632683e+001
    endloop
  endfacet
  facet normal  0.000000e+000  1.000000e+000  0.000000e+000
    outer loop
      vertex -1.673880e+001  1.000000e+001  1.632683e+001
      vertex -1.037013e+001  1.000000e+001  1.942910e+001
      vertex -1.280330e+001  1.000000e+001  1.780330e+001
    endloop
  endfacet
  facet normal  0.000000e+000  1.000000e+000  0.000000e+000
    outer loop
      vertex -1.673880e+001  1.000000e+001  1.632683e+001
      vertex -1.280330e+001  1.000000e+001  1.780330e+001
      vertex -1.442910e+001  1.000000e+001  1.537013e+001
    endloop
  endfacet
  facet normal  0.000000e+000  1.000000e+000  0.000000e+000
    outer loop
      vertex -1.673880e+001  1.000000e+001  1.632683e+001
      vertex -1.442910e+001  1.000000e+001  1.537013e+001
      vertex -1.750000e+001  1.000000e+001  1.250000e+001
    endloop
  endfacet
  facet normal  0.000000e+000  1.000000e+000  0.000000e+000
    outer loop
      vertex -1.750000e+001  1.000000e+001  1.250000e+001
      vertex -1.442910e+001  1.000000e+001  1.537013e+001
      vertex -1.499998e+001  1.000000e+001  1.250000e+001
    endloop
  endfacet
  facet normal  0.000000e+000  1.000000e+000  0.000000e+000
    outer loop
      vertex -1.750000e+001  1.000000e+001  1.250000e+001
      vertex -1.499998e+001  1.000000e+001  1.250000e+001
      vertex -1.750000e+001  1.000000e+001  5.000000e+000
    endloop
  endfacet
  facet normal  0.000000e+000  1.000000e+000  0.000000e+000
    outer loop
      vertex -1.750000e+001  1.000000e+001  5.000000e+000
      vertex -1.499998e+001  1.000000e+001  1.250000e+001
      vertex -1.500000e+001  1.000000e+001  5.000000e+000
    endloop
  endfacet
  facet normal  0.000000e+000 -1.000000e+000  0.000000e+000
    outer loop
      vertex -7.500000e+000 -1.000000e+001  2.000000e+001
      vertex  7.500000e+000 -1.000000e+001  2.000000e+001
      vertex  1.132683e+001 -1.000000e+001  2.173880e+001
    endloop
  endfacet
  facet normal  -0.000000e+000 -1.000000e+000  0.000000e+000
    outer loop
      vertex -7.500000e+000 -1.000000e+001  2.000000e+001
      vertex  1.132683e+001 -1.000000e+001  2.173880e+001
      vertex -1.132683e+001 -1.000000e+001  2.173880e+001
    endloop
  endfacet
  facet normal  0.000000e+000 -1.000000e+000  -0.000000e+000
    outer loop
      vertex -7.500000e+000 -1.000000e+001  2.000000e+001
      vertex -1.132683e+001 -1.000000e+001  2.173880e+001
      vertex -1.457107e+001 -1.000000e+001  1.957107e+001
    endloop
  endfacet
  facet normal  0.000000e+000 -1.000000e+000  0.000000e+000
    outer loop
      vertex -7.500000e+000 -1.000000e+001  2.000000e+001
      vertex -1.457107e+001 -1.000000e+001  1.957107e+001
      vertex -1.037013e+001 -1.000000e+001  1.942910e+001
    endloop
  endfacet
  facet normal  -0.000000e+000 -1.000000e+000  0.000000e+000
    outer loop
      vertex  1.442910e+001 -1.000000e+001  1.537013e+001
      vertex  1.673880e+001 -1.000000e+001  1.632683e+001
      vertex  1.280330e+001 -1.000000e+001  1.780330e+001
    endloop
  endfacet
  facet normal  0.000000e+000 -1.000000e+000  0.000000e+000
    outer loop
      vertex  1.280330e+001 -1.000000e+001  1.780330e+001
      vertex  1.673880e+001 -1.000000e+001  1.632683e+001
      vertex  1.457107e+001 -1.000000e+001  1.957107e+001
    endloop
  endfacet
  facet normal  0.000000e+000 -1.000000e+000  0.000000e+000
    outer loop
      vertex  1.280330e+001 -1.000000e+001  1.780330e+001
      vertex  1.457107e+001 -1.000000e+001  1.957107e+001
      vertex  1.037013e+001 -1.000000e+001  1.942910e+001
    endloop
  endfacet
  facet normal  0.000000e+000 -1.000000e+000  0.000000e+000
    outer loop
      vertex  1.037013e+001 -1.000000e+001  1.942910e+001
      vertex  1.457107e+001 -1.000000e+001  1.957107e+001
      vertex  1.132683e+001 -1.000000e+001  2.173880e+001
    endloop
  endfacet
  facet normal  0.000000e+000 -9.999999e-001  0.000000e+000
    outer loop
      vertex  1.037013e+001 -1.000000e+001  1.942910e+001
      vertex  1.132683e+001 -1.000000e+001  2.173880e+001
      vertex  7.500000e+000 -1.000000e+001  2.000000e+001
    endloop
  endfacet
  facet normal  -0.000000e+000 -9.999999e-001  0.000000e+000
    outer loop
      vertex  1.500000e+001 -1.000000e+001  1.248465e+001
      vertex  1.750000e+001 -1.000000e+001  1.250000e+001
      vertex  1.500002e+001 -1.000000e+001  1.250000e+001
    endloop
  endfacet
  facet normal  0.000000e+000 -1.000000e+000  0.000000e+000
    outer loop
      vertex  1.500002e+001 -1.000000e+001  1.250000e+001
      vertex  1.750000e+001 -1.000000e+001  1.250000e+001
      vertex  1.673880e+001 -1.000000e+001  1.632683e+001
    endloop
  endfacet
  facet normal  0.000000e+000 -1.000000e+000  0.000000e+000
    outer loop
      vertex  1.500002e+001 -1.000000e+001  1.250000e+001
      vertex  1.673880e+001 -1.000000e+001  1.632683e+001
      vertex  1.442910e+001 -1.000000e+001  1.537013e+001
    endloop
  endfacet
  facet normal  0.000000e+000 -9.999999e-001  0.000000e+000
    outer loop
      vertex  1.500000e+001 -1.000000e+001  5.000000e+000
      vertex  1.750000e+001 -1.000000e+001  5.000000e+000
      vertex  1.500000e+001 -1.000000e+001  1.248465e+001
    endloop
  endfacet
  facet normal  0.000000e+000 -1.000000e+000  0.000000e+000
    outer loop
      vertex  1.500000e+001 -1.000000e+001  1.248465e+001
      vertex  1.750000e+001 -1.000000e+001  5.000000e+000
      vertex  1.750000e+001 -1.000000e+001  1.250000e+001
    endloop
  endfacet
  facet normal  0.000000e+000 -1.000000e+000  -0.000000e+000
    outer loop
      vertex  1.132683e+001 -1.000000e+001  2.173880e+001
      vertex  7.500000e+000 -1.000000e+001  2.250000e+001
      vertex -1.132683e+001 -1.000000e+001  2.173880e+001
    endloop
  endfacet
  facet normal  0.000000e+000 -9.999999e-001  0.000000e+000
    outer loop
      vertex -1.132683e+001 -1.000000e+001  2.173880e+001
      vertex  7.500000e+000 -1.000000e+001  2.250000e+001
      vertex -7.500000e+000 -1.000000e+001  2.250000e+001
    endloop
  endfacet
  facet normal  0.000000e+000 -1.000000e+000  0.000000e+000
    outer loop
      vertex -1.442910e+001 -1.000000e+001  1.537013e+001
      vertex -1.280330e+001 -1.000000e+001  1.780330e+001
      vertex -1.673880e+001 -1.000000e+001  1.632683e+001
    endloop
  endfacet
  facet normal  0.000000e+000 -1.000000e+000  0.000000e+000
    outer loop
      vertex -1.673880e+001 -1.000000e+001  1.632683e+001
      vertex -1.280330e+001 -1.000000e+001  1.780330e+001
      vertex -1.037013e+001 -1.000000e+001  1.942910e+001
    endloop
  endfacet
  facet normal  -0.000000e+000 -1.000000e+000  0.000000e+000
    outer loop
      vertex -1.673880e+001 -1.000000e+001  1.632683e+001
      vertex -1.037013e+001 -1.000000e+001  1.942910e+001
      vertex -1.457107e+001 -1.000000e+001  1.957107e+001
    endloop
  endfacet
  facet normal  0.000000e+000 -1.000000e+000  0.000000e+000
    outer loop
      vertex -1.673880e+001 -1.000000e+001  1.632683e+001
      vertex -1.750000e+001 -1.000000e+001  1.250000e+001
      vertex -1.442910e+001 -1.000000e+001  1.537013e+001
    endloop
  endfacet
  facet normal  0.000000e+000 -9.999999e-001  0.000000e+000
    outer loop
      vertex -1.442910e+001 -1.000000e+001  1.537013e+001
      vertex -1.750000e+001 -1.000000e+001  1.250000e+001
      vertex -1.499998e+001 -1.000000e+001  1.250000e+001
    endloop
  endfacet
  facet normal  0.000000e+000 -1.000000e+000  0.000000e+000
    outer loop
      vertex -1.750000e+001 -1.000000e+001  1.250000e+001
      vertex -1.750000e+001 -1.000000e+001  5.000000e+000
      vertex -1.499998e+001 -1.000000e+001  1.250000e+001
    endloop
  endfacet
  facet normal  0.000000e+000 -1.000000e+000  0.000000e+000
    outer loop
      vertex -1.499998e+001 -1.000000e+001  1.250000e+001
      vertex -1.750000e+001 -1.000000e+001  5.000000e+000
      vertex -1.500000e+001 -1.000000e+001  5.000000e+000
    endloop
  endfacet
  facet normal  -0.000000e+000  0.000000e+000  1.000000e+000
    outer loop
      vertex -1.999998e+001  4.000000e+001  5.000000e+000
      vertex -3.000000e+001  2.999998e+001  5.000000e+000
      vertex -1.750000e+001  1.000000e+001  5.000000e+000
    endloop
  endfacet
  facet normal  0.000000e+000  -0.000000e+000  1.000000e+000
    outer loop
      vertex -1.999998e+001  4.000000e+001  5.000000e+000
      vertex -1.750000e+001  1.000000e+001  5.000000e+000
      vertex -1.500000e+001  1.000000e+001  5.000000e+000
    endloop
  endfacet
  facet normal  0.000000e+000  -0.000000e+000  1.000000e+000
    outer loop
      vertex -1.999998e+001  4.000000e+001  5.000000e+000
      vertex -1.500000e+001  1.000000e+001  5.000000e+000
      vertex  1.500000e+001  1.000000e+001  5.000000e+000
    endloop
  endfacet
  facet normal  0.000000e+000  -0.000000e+000  1.000000e+000
    outer loop
      vertex -1.999998e+001  4.000000e+001  5.000000e+000
      vertex  1.500000e+001  1.000000e+001  5.000000e+000
      vertex  1.750000e+001  1.000000e+001  5.000000e+000
    endloop
  endfacet
  facet normal  0.000000e+000  -0.000000e+000  1.000000e+000
    outer loop
      vertex -1.999998e+001  4.000000e+001  5.000000e+000
      vertex  1.750000e+001  1.000000e+001  5.000000e+000
      vertex  3.000000e+001  3.000002e+001  5.000000e+000
    endloop
  endfacet
  facet normal  0.000000e+000  0.000000e+000  1.000000e+000
    outer loop
      vertex -1.999998e+001  4.000000e+001  5.000000e+000
      vertex  3.000000e+001  3.000002e+001  5.000000e+000
      vertex  2.000002e+001  4.000000e+001  5.000000e+000
    endloop
  endfacet
  facet normal  0.000000e+000  -0.000000e+000  1.000000e+000
    outer loop
      vertex -2.000002e+001 -4.000000e+001  5.000000e+000
      vertex  1.999998e+001 -4.000000e+001  5.000000e+000
      vertex  3.000000e+001 -2.999998e+001  5.000000e+000
    endloop
  endfacet
  facet normal  0.000000e+000  0.000000e+000  1.000000e+000
    outer loop
      vertex -2.000002e+001 -4.000000e+001  5.000000e+000
      vertex  3.000000e+001 -2.999998e+001  5.000000e+000
      vertex  1.750000e+001 -1.000000e+001  5.000000e+000
    endloop
  endfacet
  facet normal  0.000000e+000  0.000000e+000  1.000000e+000
    outer loop
      vertex -2.000002e+001 -4.000000e+001  5.000000e+000
      vertex  1.750000e+001 -1.000000e+001  5.000000e+000
      vertex  1.500000e+001 -1.000000e+001  5.000000e+000
    endloop
  endfacet
  facet normal  0.000000e+000  0.000000e+000  1.000000e+000
    outer loop
      vertex -2.000002e+001 -4.000000e+001  5.000000e+000
      vertex  1.500000e+001 -1.000000e+001  5.000000e+000
      vertex -1.500000e+001 -1.000000e+001  5.000000e+000
    endloop
  endfacet
  facet normal  0.000000e+000  0.000000e+000  1.000000e+000
    outer loop
      vertex -2.000002e+001 -4.000000e+001  5.000000e+000
      vertex -1.500000e+001 -1.000000e+001  5.000000e+000
      vertex -1.750000e+001 -1.000000e+001  5.000000e+000
    endloop
  endfacet
  facet normal  0.000000e+000  0.000000e+000  1.000000e+000
    outer loop
      vertex -2.000002e+001 -4.000000e+001  5.000000e+000
      vertex -1.750000e+001 -1.000000e+001  5.000000e+000
      vertex -3.000000e+001 -3.000002e+001  5.000000e+000
    endloop
  endfacet
  facet normal  0.000000e+000  0.000000e+000  1.000000e+000
    outer loop
      vertex -1.750000e+001 -1.000000e+001  5.000000e+000
      vertex -1.750000e+001  1.000000e+001  5.000000e+000
      vertex -3.000000e+001 -3.000002e+001  5.000000e+000
    endloop
  endfacet
  facet normal  0.000000e+000  0.000000e+000  1.000000e+000
    outer loop
      vertex -3.000000e+001 -3.000002e+001  5.000000e+000
      vertex -1.750000e+001  1.000000e+001  5.000000e+000
      vertex -3.000000e+001  2.999998e+001  5.000000e+000
    endloop
  endfacet
  facet normal  0.000000e+000  0.000000e+000  1.000000e+000
    outer loop
      vertex -1.500000e+001 -1.000000e+001  5.000000e+000
      vertex  1.500000e+001 -1.000000e+001  5.000000e+000
      vertex -1.500000e+001  1.000000e+001  5.000000e+000
    endloop
  endfacet
  facet normal  -0.000000e+000  0.000000e+000  1.000000e+000
    outer loop
      vertex -1.500000e+001  1.000000e+001  5.000000e+000
      vertex  1.500000e+001 -1.000000e+001  5.000000e+000
      vertex  1.500000e+001  1.000000e+001  5.000000e+000
    endloop
  endfacet
  facet normal  0.000000e+000  0.000000e+000  1.000000e+000
    outer loop
      vertex  1.750000e+001 -1.000000e+001  5.000000e+000
      vertex  3.000000e+001 -2.999998e+001  5.000000e+000
      vertex  1.750000e+001  1.000000e+001  5.000000e+000
    endloop
  endfacet
  facet normal  -0.000000e+000  0.000000e+000  1.000000e+000
    outer loop
      vertex  1.750000e+001  1.000000e+001  5.000000e+000
      vertex  3.000000e+001 -2.999998e+001  5.000000e+000
      vertex  3.000000e+001  3.000002e+001  5.000000e+000
    endloop
  endfacet
  facet normal -1.950856e-001 -7.057723e-003  9.807608e-001
    outer loop
      vertex -7.500000e+000  1.000000e+001  2.000000e+001
      vertex -9.168891e+000  3.000000e+001  1.981196e+001
      vertex -1.037013e+001  1.000000e+001  1.942910e+001
    endloop
  endfacet
  facet normal  0.000000e+000  9.401573e-003  9.999558e-001
    outer loop
      vertex -7.500000e+000  1.000000e+001  2.000000e+001
      vertex -5.831077e+000  3.000000e+001  1.981196e+001
      vertex -9.168891e+000  3.000000e+001  1.981196e+001
    endloop
  endfacet
  facet normal -4.338673e-001  8.812071e-003  9.009337e-001
    outer loop
      vertex -1.037013e+001  1.000000e+001  1.942910e+001
      vertex -9.168891e+000  3.000000e+001  1.981196e+001
      vertex -1.217616e+001  3.000000e+001  1.836374e+001
    endloop
  endfacet
  facet normal -5.555605e-001 -5.878010e-003  8.314552e-001
    outer loop
      vertex -1.037013e+001  1.000000e+001  1.942910e+001
      vertex -1.217616e+001  3.000000e+001  1.836374e+001
      vertex -1.280330e+001  1.000000e+001  1.780330e+001
    endloop
  endfacet
  facet normal -7.818120e-001  7.044564e-003  6.234745e-001
    outer loop
      vertex -1.280330e+001  1.000000e+001  1.780330e+001
      vertex -1.217616e+001  3.000000e+001  1.836374e+001
      vertex -1.425725e+001  3.000000e+001  1.575413e+001
    endloop
  endfacet
  facet normal -4.338673e-001 -8.812071e-003  9.009337e-001
    outer loop
      vertex -1.217616e+001 -3.000000e+001  1.836374e+001
      vertex -9.168891e+000 -3.000000e+001  1.981196e+001
      vertex -1.037013e+001 -1.000000e+001  1.942910e+001
    endloop
  endfacet
  facet normal -5.555605e-001  5.878010e-003  8.314552e-001
    outer loop
      vertex -1.037013e+001 -1.000000e+001  1.942910e+001
      vertex -1.280330e+001 -1.000000e+001  1.780330e+001
      vertex -1.217616e+001 -3.000000e+001  1.836374e+001
    endloop
  endfacet
  facet normal -7.818120e-001 -7.044564e-003  6.234745e-001
    outer loop
      vertex -1.425725e+001 -3.000000e+001  1.575413e+001
      vertex -1.217616e+001 -3.000000e+001  1.836374e+001
      vertex -1.280330e+001 -1.000000e+001  1.780330e+001
    endloop
  endfacet
  facet normal -1.950856e-001  7.057723e-003  9.807608e-001
    outer loop
      vertex -7.500000e+000 -1.000000e+001  2.000000e+001
      vertex -1.037013e+001 -1.000000e+001  1.942910e+001
      vertex -9.168891e+000 -3.000000e+001  1.981196e+001
    endloop
  endfacet
  facet normal  0.000000e+000 -9.401573e-003  9.999558e-001
    outer loop
      vertex -7.500000e+000 -1.000000e+001  2.000000e+001
      vertex -9.168891e+000 -3.000000e+001  1.981196e+001
      vertex -5.831077e+000 -3.000000e+001  1.981196e+001
    endloop
  endfacet
  facet normal  1.119629e-001  -0.000000e+000  9.937124e-001
    outer loop
      vertex -7.500000e+000 -1.000000e+001  2.000000e+001
      vertex -5.831077e+000 -3.000000e+001  1.981196e+001
      vertex -5.831077e+000  3.000000e+001  1.981196e+001
    endloop
  endfacet
  facet normal  1.119629e-001  0.000000e+000  9.937124e-001
    outer loop
      vertex -7.500000e+000 -1.000000e+001  2.000000e+001
      vertex -5.831077e+000  3.000000e+001  1.981196e+001
      vertex -7.500000e+000  1.000000e+001  2.000000e+001
    endloop
  endfacet
  facet normal -9.749279e-001  0.000000e+000  2.225211e-001
    outer loop
      vertex -1.499998e+001  3.000000e+001  1.250000e+001
      vertex -1.499998e+001  1.000000e+001  1.250000e+001
      vertex -1.425725e+001  3.000000e+001  1.575413e+001
    endloop
  endfacet
  facet normal -9.807755e-001  4.681466e-003  1.950833e-001
    outer loop
      vertex -1.425725e+001  3.000000e+001  1.575413e+001
      vertex -1.499998e+001  1.000000e+001  1.250000e+001
      vertex -1.442910e+001  1.000000e+001  1.537013e+001
    endloop
  endfacet
  facet normal -8.314645e-001 -3.522787e-003  5.555668e-001
    outer loop
      vertex -1.425725e+001  3.000000e+001  1.575413e+001
      vertex -1.442910e+001  1.000000e+001  1.537013e+001
      vertex -1.280330e+001  1.000000e+001  1.780330e+001
    endloop
  endfacet
  facet normal  9.749280e-001  0.000000e+000  2.225209e-001
    outer loop
      vertex  1.571486e-005 -3.000000e+001  1.250000e+001
      vertex  1.571486e-005  3.000000e+001  1.250000e+001
      vertex -7.427178e-001 -3.000000e+001  1.575413e+001
    endloop
  endfacet
  facet normal  9.749280e-001  -0.000000e+000  2.225209e-001
    outer loop
      vertex -7.427178e-001 -3.000000e+001  1.575413e+001
      vertex  1.571486e-005  3.000000e+001  1.250000e+001
      vertex -7.427178e-001  3.000000e+001  1.575413e+001
    endloop
  endfacet
  facet normal  7.818313e-001  0.000000e+000  6.234900e-001
    outer loop
      vertex -7.427178e-001 -3.000000e+001  1.575413e+001
      vertex -7.427178e-001  3.000000e+001  1.575413e+001
      vertex -2.823811e+000 -3.000000e+001  1.836374e+001
    endloop
  endfacet
  facet normal  7.818313e-001  -0.000000e+000  6.234900e-001
    outer loop
      vertex -2.823811e+000 -3.000000e+001  1.836374e+001
      vertex -7.427178e-001  3.000000e+001  1.575413e+001
      vertex -2.823811e+000  3.000000e+001  1.836374e+001
    endloop
  endfacet
  facet normal  4.338842e-001  0.000000e+000  9.009686e-001
    outer loop
      vertex -2.823811e+000 -3.000000e+001  1.836374e+001
      vertex -2.823811e+000  3.000000e+001  1.836374e+001
      vertex -5.831077e+000 -3.000000e+001  1.981196e+001
    endloop
  endfacet
  facet normal  4.338842e-001  -0.000000e+000  9.009686e-001
    outer loop
      vertex -5.831077e+000 -3.000000e+001  1.981196e+001
      vertex -2.823811e+000  3.000000e+001  1.836374e+001
      vertex -5.831077e+000  3.000000e+001  1.981196e+001
    endloop
  endfacet
  facet normal -9.807863e-001  0.000000e+000  1.950854e-001
    outer loop
      vertex -1.499998e+001 -1.000000e+001  1.250000e+001
      vertex -1.499998e+001 -3.000000e+001  1.250000e+001
      vertex -1.442910e+001 -1.000000e+001  1.537013e+001
    endloop
  endfacet
  facet normal -9.749196e-001 -4.104377e-003  2.225192e-001
    outer loop
      vertex -1.442910e+001 -1.000000e+001  1.537013e+001
      vertex -1.499998e+001 -3.000000e+001  1.250000e+001
      vertex -1.425725e+001 -3.000000e+001  1.575413e+001
    endloop
  endfacet
  facet normal -8.314645e-001  3.522787e-003  5.555668e-001
    outer loop
      vertex -1.442910e+001 -1.000000e+001  1.537013e+001
      vertex -1.425725e+001 -3.000000e+001  1.575413e+001
      vertex -1.280330e+001 -1.000000e+001  1.780330e+001
    endloop
  endfacet
  facet normal  1.950856e-001  7.058030e-003  9.807608e-001
    outer loop
      vertex  7.500000e+000 -1.000000e+001  2.000000e+001
      vertex  9.168922e+000 -3.000000e+001  1.981196e+001
      vertex  1.037013e+001 -1.000000e+001  1.942910e+001
    endloop
  endfacet
  facet normal  0.000000e+000 -9.401573e-003  9.999558e-001
    outer loop
      vertex  7.500000e+000 -1.000000e+001  2.000000e+001
      vertex  5.831109e+000 -3.000000e+001  1.981196e+001
      vertex  9.168922e+000 -3.000000e+001  1.981196e+001
    endloop
  endfacet
  facet normal  7.818120e-001 -7.043335e-003  6.234745e-001
    outer loop
      vertex  1.425728e+001 -3.000000e+001  1.575413e+001
      vertex  1.280330e+001 -1.000000e+001  1.780330e+001
      vertex  1.217619e+001 -3.000000e+001  1.836374e+001
    endloop
  endfacet
  facet normal  5.555605e-001  5.878884e-003  8.314552e-001
    outer loop
      vertex  1.217619e+001 -3.000000e+001  1.836374e+001
      vertex  1.280330e+001 -1.000000e+001  1.780330e+001
      vertex  1.037013e+001 -1.000000e+001  1.942910e+001
    endloop
  endfacet
  facet normal  4.338673e-001 -8.811386e-003  9.009337e-001
    outer loop
      vertex  1.217619e+001 -3.000000e+001  1.836374e+001
      vertex  1.037013e+001 -1.000000e+001  1.942910e+001
      vertex  9.168922e+000 -3.000000e+001  1.981196e+001
    endloop
  endfacet
  facet normal  7.818120e-001  7.043334e-003  6.234745e-001
    outer loop
      vertex  1.425728e+001  3.000000e+001  1.575413e+001
      vertex  1.217619e+001  3.000000e+001  1.836374e+001
      vertex  1.280330e+001  1.000000e+001  1.780330e+001
    endloop
  endfacet
  facet normal  5.555605e-001 -5.878884e-003  8.314552e-001
    outer loop
      vertex  1.037013e+001  1.000000e+001  1.942910e+001
      vertex  1.280330e+001  1.000000e+001  1.780330e+001
      vertex  1.217619e+001  3.000000e+001  1.836374e+001
    endloop
  endfacet
  facet normal  4.338673e-001  8.811387e-003  9.009337e-001
    outer loop
      vertex  1.217619e+001  3.000000e+001  1.836374e+001
      vertex  9.168922e+000  3.000000e+001  1.981196e+001
      vertex  1.037013e+001  1.000000e+001  1.942910e+001
    endloop
  endfacet
  facet normal  1.950856e-001 -7.058029e-003  9.807608e-001
    outer loop
      vertex  7.500000e+000  1.000000e+001  2.000000e+001
      vertex  1.037013e+001  1.000000e+001  1.942910e+001
      vertex  9.168922e+000  3.000000e+001  1.981196e+001
    endloop
  endfacet
  facet normal  0.000000e+000  9.401573e-003  9.999558e-001
    outer loop
      vertex  7.500000e+000  1.000000e+001  2.000000e+001
      vertex  9.168922e+000  3.000000e+001  1.981196e+001
      vertex  5.831109e+000  3.000000e+001  1.981196e+001
    endloop
  endfacet
  facet normal -1.119650e-001  0.000000e+000  9.937122e-001
    outer loop
      vertex  7.500000e+000  1.000000e+001  2.000000e+001
      vertex  5.831109e+000  3.000000e+001  1.981196e+001
      vertex  5.831109e+000 -3.000000e+001  1.981196e+001
    endloop
  endfacet
  facet normal -1.119650e-001  0.000000e+000  9.937122e-001
    outer loop
      vertex  7.500000e+000  1.000000e+001  2.000000e+001
      vertex  5.831109e+000 -3.000000e+001  1.981196e+001
      vertex  7.500000e+000 -1.000000e+001  2.000000e+001
    endloop
  endfacet
  facet normal  9.749279e-001  0.000000e+000  2.225208e-001
    outer loop
      vertex  1.500002e+001 -3.000000e+001  1.250000e+001
      vertex  1.500002e+001 -1.000000e+001  1.250000e+001
      vertex  1.425728e+001 -3.000000e+001  1.575413e+001
    endloop
  endfacet
  facet normal  9.807735e-001 -4.679712e-003  1.950933e-001
    outer loop
      vertex  1.425728e+001 -3.000000e+001  1.575413e+001
      vertex  1.500002e+001 -1.000000e+001  1.250000e+001
      vertex  1.442910e+001 -1.000000e+001  1.537013e+001
    endloop
  endfacet
  facet normal  8.314645e-001  3.524096e-003  5.555668e-001
    outer loop
      vertex  1.425728e+001 -3.000000e+001  1.575413e+001
      vertex  1.442910e+001 -1.000000e+001  1.537013e+001
      vertex  1.280330e+001 -1.000000e+001  1.780330e+001
    endloop
  endfacet
  facet normal -4.338842e-001  0.000000e+000  9.009686e-001
    outer loop
      vertex  5.831109e+000 -3.000000e+001  1.981196e+001
      vertex  5.831109e+000  3.000000e+001  1.981196e+001
      vertex  2.823842e+000 -3.000000e+001  1.836374e+001
    endloop
  endfacet
  facet normal -4.338842e-001  0.000000e+000  9.009686e-001
    outer loop
      vertex  2.823842e+000 -3.000000e+001  1.836374e+001
      vertex  5.831109e+000  3.000000e+001  1.981196e+001
      vertex  2.823842e+000  3.000000e+001  1.836374e+001
    endloop
  endfacet
  facet normal -7.818313e-001  0.000000e+000  6.234900e-001
    outer loop
      vertex  2.823842e+000 -3.000000e+001  1.836374e+001
      vertex  2.823842e+000  3.000000e+001  1.836374e+001
      vertex  7.427492e-001 -3.000000e+001  1.575413e+001
    endloop
  endfacet
  facet normal -7.818313e-001  0.000000e+000  6.234900e-001
    outer loop
      vertex  7.427492e-001 -3.000000e+001  1.575413e+001
      vertex  2.823842e+000  3.000000e+001  1.836374e+001
      vertex  7.427492e-001  3.000000e+001  1.575413e+001
    endloop
  endfacet
  facet normal -9.749280e-001  0.000000e+000  2.225209e-001
    outer loop
      vertex  7.427492e-001 -3.000000e+001  1.575413e+001
      vertex  7.427492e-001  3.000000e+001  1.575413e+001
      vertex  1.571486e-005 -3.000000e+001  1.250000e+001
    endloop
  endfacet
  facet normal -9.749280e-001  0.000000e+000  2.225209e-001
    outer loop
      vertex  1.571486e-005 -3.000000e+001  1.250000e+001
      vertex  7.427492e-001  3.000000e+001  1.575413e+001
      vertex  1.571486e-005  3.000000e+001  1.250000e+001
    endloop
  endfacet
  facet normal  9.807842e-001  0.000000e+000  1.950954e-001
    outer loop
      vertex  1.500002e+001  1.000000e+001  1.250000e+001
      vertex  1.500002e+001  3.000000e+001  1.250000e+001
      vertex  1.442910e+001  1.000000e+001  1.537013e+001
    endloop
  endfacet
  facet normal  9.749197e-001  4.102849e-003  2.225189e-001
    outer loop
      vertex  1.442910e+001  1.000000e+001  1.537013e+001
      vertex  1.500002e+001  3.000000e+001  1.250000e+001
      vertex  1.425728e+001  3.000000e+001  1.575413e+001
    endloop
  endfacet
  facet normal  8.314645e-001 -3.524095e-003  5.555668e-001
    outer loop
      vertex  1.442910e+001  1.000000e+001  1.537013e+001
      vertex  1.425728e+001  3.000000e+001  1.575413e+001
      vertex  1.280330e+001  1.000000e+001  1.780330e+001
    endloop
  endfacet
  facet normal  9.999995e-001  0.000000e+000 -9.938501e-004
    outer loop
      vertex  1.500002e+001 -1.000000e+001  1.250000e+001
      vertex  1.500002e+001 -3.000000e+001  1.250000e+001
      vertex  1.500000e+001 -1.000000e+001  1.248465e+001
    endloop
  endfacet
  facet normal  9.749279e-001 -1.700765e-004 -2.225208e-001
    outer loop
      vertex  1.500000e+001 -1.000000e+001  1.248465e+001
      vertex  1.500002e+001 -3.000000e+001  1.250000e+001
      vertex  1.425728e+001 -3.000000e+001  9.245872e+000
    endloop
  endfacet
  facet normal  9.746997e-001  0.000000e+000 -2.235187e-001
    outer loop
      vertex  1.500000e+001 -1.000000e+001  1.248465e+001
      vertex  1.425728e+001 -3.000000e+001  9.245872e+000
      vertex  1.500000e+001  1.000000e+001  1.248465e+001
    endloop
  endfacet
  facet normal  9.746996e-001  0.000000e+000 -2.235187e-001
    outer loop
      vertex  1.500000e+001  1.000000e+001  1.248465e+001
      vertex  1.425728e+001 -3.000000e+001  9.245872e+000
      vertex  1.425728e+001  3.000000e+001  9.245872e+000
    endloop
  endfacet
  facet normal  9.993166e-001  3.695031e-002 -9.931837e-004
    outer loop
      vertex  1.500000e+001  1.000000e+001  1.248465e+001
      vertex  1.425728e+001  3.000000e+001  9.245872e+000
      vertex  1.500002e+001  1.000000e+001  1.250000e+001
    endloop
  endfacet
  facet normal  9.749279e-001  0.000000e+000 -2.225208e-001
    outer loop
      vertex  1.500002e+001  1.000000e+001  1.250000e+001
      vertex  1.425728e+001  3.000000e+001  9.245872e+000
      vertex  1.500002e+001  3.000000e+001  1.250000e+001
    endloop
  endfacet
  facet normal -9.749280e-001  -0.000000e+000 -2.225209e-001
    outer loop
      vertex  1.571486e-005 -3.000000e+001  1.250000e+001
      vertex  1.571486e-005  3.000000e+001  1.250000e+001
      vertex  7.427492e-001 -3.000000e+001  9.245872e+000
    endloop
  endfacet
  facet normal -9.749280e-001  0.000000e+000 -2.225209e-001
    outer loop
      vertex  7.427492e-001 -3.000000e+001  9.245872e+000
      vertex  1.571486e-005  3.000000e+001  1.250000e+001
      vertex  7.427492e-001  3.000000e+001  9.245872e+000
    endloop
  endfacet
  facet normal -7.818314e-001  -0.000000e+000 -6.234899e-001
    outer loop
      vertex  7.427492e-001 -3.000000e+001  9.245872e+000
      vertex  7.427492e-001  3.000000e+001  9.245872e+000
      vertex  2.823842e+000 -3.000000e+001  6.636264e+000
    endloop
  endfacet
  facet normal -7.818314e-001  0.000000e+000 -6.234899e-001
    outer loop
      vertex  2.823842e+000 -3.000000e+001  6.636264e+000
      vertex  7.427492e-001  3.000000e+001  9.245872e+000
      vertex  2.823842e+000  3.000000e+001  6.636264e+000
    endloop
  endfacet
  facet normal -4.338837e-001  -0.000000e+000 -9.009688e-001
    outer loop
      vertex  2.823842e+000 -3.000000e+001  6.636264e+000
      vertex  2.823842e+000  3.000000e+001  6.636264e+000
      vertex  5.831109e+000 -3.000000e+001  5.188041e+000
    endloop
  endfacet
  facet normal -4.338837e-001  0.000000e+000 -9.009688e-001
    outer loop
      vertex  5.831109e+000 -3.000000e+001  5.188041e+000
      vertex  2.823842e+000  3.000000e+001  6.636264e+000
      vertex  5.831109e+000  3.000000e+001  5.188041e+000
    endloop
  endfacet
  facet normal  0.000000e+000  0.000000e+000 -1.000000e+000
    outer loop
      vertex  5.831109e+000 -3.000000e+001  5.188041e+000
      vertex  5.831109e+000  3.000000e+001  5.188041e+000
      vertex  9.168922e+000 -3.000000e+001  5.188041e+000
    endloop
  endfacet
  facet normal  0.000000e+000  0.000000e+000 -1.000000e+000
    outer loop
      vertex  9.168922e+000 -3.000000e+001  5.188041e+000
      vertex  5.831109e+000  3.000000e+001  5.188041e+000
      vertex  9.168922e+000  3.000000e+001  5.188041e+000
    endloop
  endfacet
  facet normal  4.338836e-001  0.000000e+000 -9.009689e-001
    outer loop
      vertex  9.168922e+000 -3.000000e+001  5.188041e+000
      vertex  9.168922e+000  3.000000e+001  5.188041e+000
      vertex  1.217619e+001 -3.000000e+001  6.636264e+000
    endloop
  endfacet
  facet normal  4.338836e-001  0.000000e+000 -9.009689e-001
    outer loop
      vertex  1.217619e+001 -3.000000e+001  6.636264e+000
      vertex  9.168922e+000  3.000000e+001  5.188041e+000
      vertex  1.217619e+001  3.000000e+001  6.636264e+000
    endloop
  endfacet
  facet normal  7.818315e-001  0.000000e+000 -6.234899e-001
    outer loop
      vertex  1.217619e+001 -3.000000e+001  6.636264e+000
      vertex  1.217619e+001  3.000000e+001  6.636264e+000
      vertex  1.425728e+001 -3.000000e+001  9.245872e+000
    endloop
  endfacet
  facet normal  7.818315e-001  0.000000e+000 -6.234899e-001
    outer loop
      vertex  1.425728e+001 -3.000000e+001  9.245872e+000
      vertex  1.217619e+001  3.000000e+001  6.636264e+000
      vertex  1.425728e+001  3.000000e+001  9.245872e+000
    endloop
  endfacet
  facet normal  1.000000e+000  0.000000e+000  0.000000e+000
    outer loop
      vertex  1.750000e+001 -1.000000e+001  1.250000e+001
      vertex  1.750000e+001 -1.000000e+001  5.000000e+000
      vertex  1.750000e+001  1.000000e+001  1.250000e+001
    endloop
  endfacet
  facet normal  1.000000e+000  0.000000e+000  0.000000e+000
    outer loop
      vertex  1.750000e+001  1.000000e+001  1.250000e+001
      vertex  1.750000e+001 -1.000000e+001  5.000000e+000
      vertex  1.750000e+001  1.000000e+001  5.000000e+000
    endloop
  endfacet
  facet normal -1.000000e+000  0.000000e+000  0.000000e+000
    outer loop
      vertex -1.750000e+001 -1.000000e+001  5.000000e+000
      vertex -1.750000e+001 -1.000000e+001  1.250000e+001
      vertex -1.750000e+001  1.000000e+001  5.000000e+000
    endloop
  endfacet
  facet normal -1.000000e+000  0.000000e+000  0.000000e+000
    outer loop
      vertex -1.750000e+001  1.000000e+001  5.000000e+000
      vertex -1.750000e+001 -1.000000e+001  1.250000e+001
      vertex -1.750000e+001  1.000000e+001  1.250000e+001
    endloop
  endfacet
  facet normal -9.749278e-001  0.000000e+000 -2.225210e-001
    outer loop
      vertex -1.425725e+001  3.000000e+001  9.245872e+000
      vertex -1.425725e+001 -3.000000e+001  9.245872e+000
      vertex -1.499998e+001 -3.000000e+001  1.250000e+001
    endloop
  endfacet
  facet normal -9.749279e-001  0.000000e+000 -2.225211e-001
    outer loop
      vertex -1.425725e+001  3.000000e+001  9.245872e+000
      vertex -1.499998e+001 -3.000000e+001  1.250000e+001
      vertex -1.499998e+001 -1.000000e+001  1.250000e+001
    endloop
  endfacet
  facet normal -9.749279e-001  0.000000e+000 -2.225211e-001
    outer loop
      vertex -1.425725e+001  3.000000e+001  9.245872e+000
      vertex -1.499998e+001 -1.000000e+001  1.250000e+001
      vertex -1.499998e+001  1.000000e+001  1.250000e+001
    endloop
  endfacet
  facet normal -9.749279e-001  0.000000e+000 -2.225211e-001
    outer loop
      vertex -1.425725e+001  3.000000e+001  9.245872e+000
      vertex -1.499998e+001  1.000000e+001  1.250000e+001
      vertex -1.499998e+001  3.000000e+001  1.250000e+001
    endloop
  endfacet
  facet normal -7.818315e-001  -0.000000e+000 -6.234899e-001
    outer loop
      vertex -1.425725e+001 -3.000000e+001  9.245872e+000
      vertex -1.425725e+001  3.000000e+001  9.245872e+000
      vertex -1.217616e+001 -3.000000e+001  6.636264e+000
    endloop
  endfacet
  facet normal -7.818315e-001  0.000000e+000 -6.234899e-001
    outer loop
      vertex -1.217616e+001 -3.000000e+001  6.636264e+000
      vertex -1.425725e+001  3.000000e+001  9.245872e+000
      vertex -1.217616e+001  3.000000e+001  6.636264e+000
    endloop
  endfacet
  facet normal -4.338836e-001  -0.000000e+000 -9.009689e-001
    outer loop
      vertex -1.217616e+001 -3.000000e+001  6.636264e+000
      vertex -1.217616e+001  3.000000e+001  6.636264e+000
      vertex -9.168891e+000 -3.000000e+001  5.188041e+000
    endloop
  endfacet
  facet normal -4.338836e-001  0.000000e+000 -9.009689e-001
    outer loop
      vertex -9.168891e+000 -3.000000e+001  5.188041e+000
      vertex -1.217616e+001  3.000000e+001  6.636264e+000
      vertex -9.168891e+000  3.000000e+001  5.188041e+000
    endloop
  endfacet
  facet normal  0.000000e+000  0.000000e+000 -1.000000e+000
    outer loop
      vertex -9.168891e+000 -3.000000e+001  5.188041e+000
      vertex -9.168891e+000  3.000000e+001  5.188041e+000
      vertex -5.831077e+000 -3.000000e+001  5.188041e+000
    endloop
  endfacet
  facet normal  0.000000e+000  0.000000e+000 -1.000000e+000
    outer loop
      vertex -5.831077e+000 -3.000000e+001  5.188041e+000
      vertex -9.168891e+000  3.000000e+001  5.188041e+000
      vertex -5.831077e+000  3.000000e+001  5.188041e+000
    endloop
  endfacet
  facet normal  4.338837e-001  0.000000e+000 -9.009688e-001
    outer loop
      vertex -5.831077e+000 -3.000000e+001  5.188041e+000
      vertex -5.831077e+000  3.000000e+001  5.188041e+000
      vertex -2.823811e+000 -3.000000e+001  6.636264e+000
    endloop
  endfacet
  facet normal  4.338837e-001  0.000000e+000 -9.009688e-001
    outer loop
      vertex -2.823811e+000 -3.000000e+001  6.636264e+000
      vertex -5.831077e+000  3.000000e+001  5.188041e+000
      vertex -2.823811e+000  3.000000e+001  6.636264e+000
    endloop
  endfacet
  facet normal  7.818314e-001  0.000000e+000 -6.234899e-001
    outer loop
      vertex -2.823811e+000 -3.000000e+001  6.636264e+000
      vertex -2.823811e+000  3.000000e+001  6.636264e+000
      vertex -7.427178e-001 -3.000000e+001  9.245872e+000
    endloop
  endfacet
  facet normal  7.818314e-001  0.000000e+000 -6.234899e-001
    outer loop
      vertex -7.427178e-001 -3.000000e+001  9.245872e+000
      vertex -2.823811e+000  3.000000e+001  6.636264e+000
      vertex -7.427178e-001  3.000000e+001  9.245872e+000
    endloop
  endfacet
  facet normal  9.749280e-001  0.000000e+000 -2.225209e-001
    outer loop
      vertex -7.427178e-001 -3.000000e+001  9.245872e+000
      vertex -7.427178e-001  3.000000e+001  9.245872e+000
      vertex  1.571486e-005 -3.000000e+001  1.250000e+001
    endloop
  endfacet
  facet normal  9.749280e-001  0.000000e+000 -2.225209e-001
    outer loop
      vertex  1.571486e-005 -3.000000e+001  1.250000e+001
      vertex -7.427178e-001  3.000000e+001  9.245872e+000
      vertex  1.571486e-005  3.000000e+001  1.250000e+001
    endloop
  endfacet
  facet normal  9.807854e-001  0.000000e+000  1.950901e-001
    outer loop
      vertex  1.750000e+001 -1.000000e+001  1.250000e+001
      vertex  1.750000e+001  1.000000e+001  1.250000e+001
      vertex  1.673880e+001 -1.000000e+001  1.632683e+001
    endloop
  endfacet
  facet normal  9.807854e-001  -0.000000e+000  1.950901e-001
    outer loop
      vertex  1.673880e+001 -1.000000e+001  1.632683e+001
      vertex  1.750000e+001  1.000000e+001  1.250000e+001
      vertex  1.673880e+001  1.000000e+001  1.632683e+001
    endloop
  endfacet
  facet normal  8.314695e-001  0.000000e+000  5.555703e-001
    outer loop
      vertex  1.673880e+001 -1.000000e+001  1.632683e+001
      vertex  1.673880e+001  1.000000e+001  1.632683e+001
      vertex  1.457107e+001 -1.000000e+001  1.957107e+001
    endloop
  endfacet
  facet normal  8.314695e-001  -0.000000e+000  5.555703e-001
    outer loop
      vertex  1.457107e+001 -1.000000e+001  1.957107e+001
      vertex  1.673880e+001  1.000000e+001  1.632683e+001
      vertex  1.457107e+001  1.000000e+001  1.957107e+001
    endloop
  endfacet
  facet normal  5.555704e-001  0.000000e+000  8.314694e-001
    outer loop
      vertex  1.457107e+001 -1.000000e+001  1.957107e+001
      vertex  1.457107e+001  1.000000e+001  1.957107e+001
      vertex  1.132683e+001 -1.000000e+001  2.173880e+001
    endloop
  endfacet
  facet normal  5.555704e-001  -0.000000e+000  8.314694e-001
    outer loop
      vertex  1.132683e+001 -1.000000e+001  2.173880e+001
      vertex  1.457107e+001  1.000000e+001  1.957107e+001
      vertex  1.132683e+001  1.000000e+001  2.173880e+001
    endloop
  endfacet
  facet normal  1.950901e-001  0.000000e+000  9.807853e-001
    outer loop
      vertex  1.132683e+001 -1.000000e+001  2.173880e+001
      vertex  1.132683e+001  1.000000e+001  2.173880e+001
      vertex  7.500000e+000 -1.000000e+001  2.250000e+001
    endloop
  endfacet
  facet normal  1.950901e-001  -0.000000e+000  9.807853e-001
    outer loop
      vertex  7.500000e+000 -1.000000e+001  2.250000e+001
      vertex  1.132683e+001  1.000000e+001  2.173880e+001
      vertex  7.500000e+000  1.000000e+001  2.250000e+001
    endloop
  endfacet
  facet normal  0.000000e+000  0.000000e+000  1.000000e+000
    outer loop
      vertex -7.500000e+000 -1.000000e+001  2.250000e+001
      vertex  7.500000e+000 -1.000000e+001  2.250000e+001
      vertex -7.500000e+000  1.000000e+001  2.250000e+001
    endloop
  endfacet
  facet normal  -0.000000e+000  0.000000e+000  1.000000e+000
    outer loop
      vertex -7.500000e+000  1.000000e+001  2.250000e+001
      vertex  7.500000e+000 -1.000000e+001  2.250000e+001
      vertex  7.500000e+000  1.000000e+001  2.250000e+001
    endloop
  endfacet
  facet normal -1.950901e-001  0.000000e+000  9.807853e-001
    outer loop
      vertex -7.500000e+000 -1.000000e+001  2.250000e+001
      vertex -7.500000e+000  1.000000e+001  2.250000e+001
      vertex -1.132683e+001 -1.000000e+001  2.173880e+001
    endloop
  endfacet
  facet normal -1.950901e-001  0.000000e+000  9.807853e-001
    outer loop
      vertex -1.132683e+001 -1.000000e+001  2.173880e+001
      vertex -7.500000e+000  1.000000e+001  2.250000e+001
      vertex -1.132683e+001  1.000000e+001  2.173880e+001
    endloop
  endfacet
  facet normal -5.555704e-001  0.000000e+000  8.314694e-001
    outer loop
      vertex -1.132683e+001 -1.000000e+001  2.173880e+001
      vertex -1.132683e+001  1.000000e+001  2.173880e+001
      vertex -1.457107e+001 -1.000000e+001  1.957107e+001
    endloop
  endfacet
  facet normal -5.555704e-001  0.000000e+000  8.314694e-001
    outer loop
      vertex -1.457107e+001 -1.000000e+001  1.957107e+001
      vertex -1.132683e+001  1.000000e+001  2.173880e+001
      vertex -1.457107e+001  1.000000e+001  1.957107e+001
    endloop
  endfacet
  facet normal -8.314695e-001  0.000000e+000  5.555703e-001
    outer loop
      vertex -1.457107e+001 -1.000000e+001  1.957107e+001
      vertex -1.457107e+001  1.000000e+001  1.957107e+001
      vertex -1.673880e+001 -1.000000e+001  1.632683e+001
    endloop
  endfacet
  facet normal -8.314695e-001  0.000000e+000  5.555703e-001
    outer loop
      vertex -1.673880e+001 -1.000000e+001  1.632683e+001
      vertex -1.457107e+001  1.000000e+001  1.957107e+001
      vertex -1.673880e+001  1.000000e+001  1.632683e+001
    endloop
  endfacet
  facet normal -9.807854e-001  0.000000e+000  1.950901e-001
    outer loop
      vertex -1.673880e+001 -1.000000e+001  1.632683e+001
      vertex -1.673880e+001  1.000000e+001  1.632683e+001
      vertex -1.750000e+001 -1.000000e+001  1.250000e+001
    endloop
  endfacet
  facet normal -9.807854e-001  0.000000e+000  1.950901e-001
    outer loop
      vertex -1.750000e+001 -1.000000e+001  1.250000e+001
      vertex -1.673880e+001  1.000000e+001  1.632683e+001
      vertex -1.750000e+001  1.000000e+001  1.250000e+001
    endloop
  endfacet
  facet normal  -0.000000e+000 -1.000000e+000  0.000000e+000
    outer loop
      vertex -1.499998e+001 -3.000000e+001  1.250000e+001
      vertex -7.427178e-001 -3.000000e+001  1.575413e+001
      vertex -1.425725e+001 -3.000000e+001  1.575413e+001
    endloop
  endfacet
  facet normal  0.000000e+000 -1.000000e+000  0.000000e+000
    outer loop
      vertex -1.425725e+001 -3.000000e+001  1.575413e+001
      vertex -7.427178e-001 -3.000000e+001  1.575413e+001
      vertex -2.823811e+000 -3.000000e+001  1.836374e+001
    endloop
  endfacet
  facet normal  -0.000000e+000 -1.000000e+000  0.000000e+000
    outer loop
      vertex -1.425725e+001 -3.000000e+001  1.575413e+001
      vertex -2.823811e+000 -3.000000e+001  1.836374e+001
      vertex -1.217616e+001 -3.000000e+001  1.836374e+001
    endloop
  endfacet
  facet normal  0.000000e+000 -1.000000e+000  0.000000e+000
    outer loop
      vertex -1.217616e+001 -3.000000e+001  1.836374e+001
      vertex -2.823811e+000 -3.000000e+001  1.836374e+001
      vertex -5.831077e+000 -3.000000e+001  1.981196e+001
    endloop
  endfacet
  facet normal  -0.000000e+000 -1.000000e+000  0.000000e+000
    outer loop
      vertex -1.217616e+001 -3.000000e+001  1.836374e+001
      vertex -5.831077e+000 -3.000000e+001  1.981196e+001
      vertex -9.168891e+000 -3.000000e+001  1.981196e+001
    endloop
  endfacet
  facet normal  0.000000e+000 -1.000000e+000  0.000000e+000
    outer loop
      vertex -7.427178e-001 -3.000000e+001  1.575413e+001
      vertex -1.499998e+001 -3.000000e+001  1.250000e+001
      vertex  1.571486e-005 -3.000000e+001  1.250000e+001
    endloop
  endfacet
  facet normal  -0.000000e+000 -1.000000e+000  0.000000e+000
    outer loop
      vertex  1.571486e-005 -3.000000e+001  1.250000e+001
      vertex -1.499998e+001 -3.000000e+001  1.250000e+001
      vertex -1.425725e+001 -3.000000e+001  9.245872e+000
    endloop
  endfacet
  facet normal  0.000000e+000 -1.000000e+000  0.000000e+000
    outer loop
      vertex  1.571486e-005 -3.000000e+001  1.250000e+001
      vertex -1.425725e+001 -3.000000e+001  9.245872e+000
      vertex -7.427178e-001 -3.000000e+001  9.245872e+000
    endloop
  endfacet
  facet normal  -0.000000e+000 -1.000000e+000  0.000000e+000
    outer loop
      vertex -7.427178e-001 -3.000000e+001  9.245872e+000
      vertex -1.425725e+001 -3.000000e+001  9.245872e+000
      vertex -1.217616e+001 -3.000000e+001  6.636264e+000
    endloop
  endfacet
  facet normal  0.000000e+000 -9.999999e-001  0.000000e+000
    outer loop
      vertex -7.427178e-001 -3.000000e+001  9.245872e+000
      vertex -1.217616e+001 -3.000000e+001  6.636264e+000
      vertex -2.823811e+000 -3.000000e+001  6.636264e+000
    endloop
  endfacet
  facet normal  -0.000000e+000 -9.999999e-001  0.000000e+000
    outer loop
      vertex -2.823811e+000 -3.000000e+001  6.636264e+000
      vertex -1.217616e+001 -3.000000e+001  6.636264e+000
      vertex -9.168891e+000 -3.000000e+001  5.188041e+000
    endloop
  endfacet
  facet normal  0.000000e+000 -1.000000e+000  0.000000e+000
    outer loop
      vertex -2.823811e+000 -3.000000e+001  6.636264e+000
      vertex -9.168891e+000 -3.000000e+001  5.188041e+000
      vertex -5.831077e+000 -3.000000e+001  5.188041e+000
    endloop
  endfacet
  facet normal  0.000000e+000  1.000000e+000  0.000000e+000
    outer loop
      vertex -9.168891e+000  3.000000e+001  1.981196e+001
      vertex -5.831077e+000  3.000000e+001  1.981196e+001
      vertex -1.217616e+001  3.000000e+001  1.836374e+001
    endloop
  endfacet
  facet normal  0.000000e+000  1.000000e+000  0.000000e+000
    outer loop
      vertex -1.217616e+001  3.000000e+001  1.836374e+001
      vertex -5.831077e+000  3.000000e+001  1.981196e+001
      vertex -2.823811e+000  3.000000e+001  1.836374e+001
    endloop
  endfacet
  facet normal  0.000000e+000  1.000000e+000  0.000000e+000
    outer loop
      vertex -1.217616e+001  3.000000e+001  1.836374e+001
      vertex -2.823811e+000  3.000000e+001  1.836374e+001
      vertex -1.425725e+001  3.000000e+001  1.575413e+001
    endloop
  endfacet
  facet normal  0.000000e+000  1.000000e+000  0.000000e+000
    outer loop
      vertex -1.425725e+001  3.000000e+001  1.575413e+001
      vertex -2.823811e+000  3.000000e+001  1.836374e+001
      vertex -7.427178e-001  3.000000e+001  1.575413e+001
    endloop
  endfacet
  facet normal  0.000000e+000  1.000000e+000  0.000000e+000
    outer loop
      vertex -1.425725e+001  3.000000e+001  1.575413e+001
      vertex -7.427178e-001  3.000000e+001  1.575413e+001
      vertex -1.499998e+001  3.000000e+001  1.250000e+001
    endloop
  endfacet
  facet normal  0.000000e+000  1.000000e+000  0.000000e+000
    outer loop
      vertex -1.499998e+001  3.000000e+001  1.250000e+001
      vertex -7.427178e-001  3.000000e+001  1.575413e+001
      vertex  1.571486e-005  3.000000e+001  1.250000e+001
    endloop
  endfacet
  facet normal  0.000000e+000  1.000000e+000  0.000000e+000
    outer loop
      vertex -1.499998e+001  3.000000e+001  1.250000e+001
      vertex  1.571486e-005  3.000000e+001  1.250000e+001
      vertex -1.425725e+001  3.000000e+001  9.245872e+000
    endloop
  endfacet
  facet normal  0.000000e+000  1.000000e+000  0.000000e+000
    outer loop
      vertex -1.425725e+001  3.000000e+001  9.245872e+000
      vertex  1.571486e-005  3.000000e+001  1.250000e+001
      vertex -7.427178e-001  3.000000e+001  9.245872e+000
    endloop
  endfacet
  facet normal  0.000000e+000  1.000000e+000  0.000000e+000
    outer loop
      vertex -1.425725e+001  3.000000e+001  9.245872e+000
      vertex -7.427178e-001  3.000000e+001  9.245872e+000
      vertex -1.217616e+001  3.000000e+001  6.636264e+000
    endloop
  endfacet
  facet normal  0.000000e+000  9.999999e-001  0.000000e+000
    outer loop
      vertex -1.217616e+001  3.000000e+001  6.636264e+000
      vertex -7.427178e-001  3.000000e+001  9.245872e+000
      vertex -2.823811e+000  3.000000e+001  6.636264e+000
    endloop
  endfacet
  facet normal  0.000000e+000  9.999999e-001  0.000000e+000
    outer loop
      vertex -1.217616e+001  3.000000e+001  6.636264e+000
      vertex -2.823811e+000  3.000000e+001  6.636264e+000
      vertex -9.168891e+000  3.000000e+001  5.188041e+000
    endloop
  endfacet
  facet normal  0.000000e+000  1.000000e+000  0.000000e+000
    outer loop
      vertex -9.168891e+000  3.000000e+001  5.188041e+000
      vertex -2.823811e+000  3.000000e+001  6.636264e+000
      vertex -5.831077e+000  3.000000e+001  5.188041e+000
    endloop
  endfacet
  facet normal  -0.000000e+000 -1.000000e+000  0.000000e+000
    outer loop
      vertex  1.571486e-005 -3.000000e+001  1.250000e+001
      vertex  1.425728e+001 -3.000000e+001  1.575413e+001
      vertex  7.427492e-001 -3.000000e+001  1.575413e+001
    endloop
  endfacet
  facet normal  0.000000e+000 -1.000000e+000  0.000000e+000
    outer loop
      vertex  7.427492e-001 -3.000000e+001  1.575413e+001
      vertex  1.425728e+001 -3.000000e+001  1.575413e+001
      vertex  1.217619e+001 -3.000000e+001  1.836374e+001
    endloop
  endfacet
  facet normal  -0.000000e+000 -1.000000e+000  0.000000e+000
    outer loop
      vertex  7.427492e-001 -3.000000e+001  1.575413e+001
      vertex  1.217619e+001 -3.000000e+001  1.836374e+001
      vertex  2.823842e+000 -3.000000e+001  1.836374e+001
    endloop
  endfacet
  facet normal  0.000000e+000 -1.000000e+000  0.000000e+000
    outer loop
      vertex  2.823842e+000 -3.000000e+001  1.836374e+001
      vertex  1.217619e+001 -3.000000e+001  1.836374e+001
      vertex  9.168922e+000 -3.000000e+001  1.981196e+001
    endloop
  endfacet
  facet normal  -0.000000e+000 -1.000000e+000  0.000000e+000
    outer loop
      vertex  2.823842e+000 -3.000000e+001  1.836374e+001
      vertex  9.168922e+000 -3.000000e+001  1.981196e+001
      vertex  5.831109e+000 -3.000000e+001  1.981196e+001
    endloop
  endfacet
  facet normal  0.000000e+000 -1.000000e+000  0.000000e+000
    outer loop
      vertex  1.425728e+001 -3.000000e+001  1.575413e+001
      vertex  1.571486e-005 -3.000000e+001  1.250000e+001
      vertex  1.500002e+001 -3.000000e+001  1.250000e+001
    endloop
  endfacet
  facet normal  -0.000000e+000 -1.000000e+000  0.000000e+000
    outer loop
      vertex  1.500002e+001 -3.000000e+001  1.250000e+001
      vertex  1.571486e-005 -3.000000e+001  1.250000e+001
      vertex  7.427492e-001 -3.000000e+001  9.245872e+000
    endloop
  endfacet
  facet normal  0.000000e+000 -1.000000e+000  0.000000e+000
    outer loop
      vertex  1.500002e+001 -3.000000e+001  1.250000e+001
      vertex  7.427492e-001 -3.000000e+001  9.245872e+000
      vertex  1.425728e+001 -3.000000e+001  9.245872e+000
    endloop
  endfacet
  facet normal  -0.000000e+000 -1.000000e+000  0.000000e+000
    outer loop
      vertex  1.425728e+001 -3.000000e+001  9.245872e+000
      vertex  7.427492e-001 -3.000000e+001  9.245872e+000
      vertex  2.823842e+000 -3.000000e+001  6.636264e+000
    endloop
  endfacet
  facet normal  0.000000e+000 -9.999999e-001  0.000000e+000
    outer loop
      vertex  1.425728e+001 -3.000000e+001  9.245872e+000
      vertex  2.823842e+000 -3.000000e+001  6.636264e+000
      vertex  1.217619e+001 -3.000000e+001  6.636264e+000
    endloop
  endfacet
  facet normal  -0.000000e+000 -9.999999e-001  0.000000e+000
    outer loop
      vertex  1.217619e+001 -3.000000e+001  6.636264e+000
      vertex  2.823842e+000 -3.000000e+001  6.636264e+000
      vertex  5.831109e+000 -3.000000e+001  5.188041e+000
    endloop
  endfacet
  facet normal  0.000000e+000 -1.000000e+000  0.000000e+000
    outer loop
      vertex  1.217619e+001 -3.000000e+001  6.636264e+000
      vertex  5.831109e+000 -3.000000e+001  5.188041e+000
      vertex  9.168922e+000 -3.000000e+001  5.188041e+000
    endloop
  endfacet
  facet normal  0.000000e+000  1.000000e+000  0.000000e+000
    outer loop
      vertex  5.831109e+000  3.000000e+001  1.981196e+001
      vertex  9.168922e+000  3.000000e+001  1.981196e+001
      vertex  2.823842e+000  3.000000e+001  1.836374e+001
    endloop
  endfacet
  facet normal  0.000000e+000  1.000000e+000  0.000000e+000
    outer loop
      vertex  2.823842e+000  3.000000e+001  1.836374e+001
      vertex  9.168922e+000  3.000000e+001  1.981196e+001
      vertex  1.217619e+001  3.000000e+001  1.836374e+001
    endloop
  endfacet
  facet normal  0.000000e+000  1.000000e+000  0.000000e+000
    outer loop
      vertex  2.823842e+000  3.000000e+001  1.836374e+001
      vertex  1.217619e+001  3.000000e+001  1.836374e+001
      vertex  7.427492e-001  3.000000e+001  1.575413e+001
    endloop
  endfacet
  facet normal  0.000000e+000  1.000000e+000  0.000000e+000
    outer loop
      vertex  7.427492e-001  3.000000e+001  1.575413e+001
      vertex  1.217619e+001  3.000000e+001  1.836374e+001
      vertex  1.425728e+001  3.000000e+001  1.575413e+001
    endloop
  endfacet
  facet normal  0.000000e+000  1.000000e+000  0.000000e+000
    outer loop
      vertex  7.427492e-001  3.000000e+001  1.575413e+001
      vertex  1.425728e+001  3.000000e+001  1.575413e+001
      vertex  1.571486e-005  3.000000e+001  1.250000e+001
    endloop
  endfacet
  facet normal  0.000000e+000  1.000000e+000  0.000000e+000
    outer loop
      vertex  1.571486e-005  3.000000e+001  1.250000e+001
      vertex  1.425728e+001  3.000000e+001  1.575413e+001
      vertex  1.500002e+001  3.000000e+001  1.250000e+001
    endloop
  endfacet
  facet normal  0.000000e+000  1.000000e+000  0.000000e+000
    outer loop
      vertex  1.571486e-005  3.000000e+001  1.250000e+001
      vertex  1.500002e+001  3.000000e+001  1.250000e+001
      vertex  7.427492e-001  3.000000e+001  9.245872e+000
    endloop
  endfacet
  facet normal  0.000000e+000  1.000000e+000  0.000000e+000
    outer loop
      vertex  7.427492e-001  3.000000e+001  9.245872e+000
      vertex  1.500002e+001  3.000000e+001  1.250000e+001
      vertex  1.425728e+001  3.000000e+001  9.245872e+000
    endloop
  endfacet
  facet normal  0.000000e+000  1.000000e+000  0.000000e+000
    outer loop
      vertex  7.427492e-001  3.000000e+001  9.245872e+000
      vertex  1.425728e+001  3.000000e+001  9.245872e+000
      vertex  2.823842e+000  3.000000e+001  6.636264e+000
    endloop
  endfacet
  facet normal  0.000000e+000  9.999999e-001  0.000000e+000
    outer loop
      vertex  2.823842e+000  3.000000e+001  6.636264e+000
      vertex  1.425728e+001  3.000000e+001  9.245872e+000
      vertex  1.217619e+001  3.000000e+001  6.636264e+000
    endloop
  endfacet
  facet normal  0.000000e+000  9.999999e-001  0.000000e+000
    outer loop
      vertex  2.823842e+000  3.000000e+001  6.636264e+000
      vertex  1.217619e+001  3.000000e+001  6.636264e+000
      vertex  5.831109e+000  3.000000e+001  5.188041e+000
    endloop
  endfacet
  facet normal  0.000000e+000  1.000000e+000  0.000000e+000
    outer loop
      vertex  5.831109e+000  3.000000e+001  5.188041e+000
      vertex  1.217619e+001  3.000000e+001  6.636264e+000
      vertex  9.168922e+000  3.000000e+001  5.188041e+000
    endloop
  endfacet
  facet normal  0.000000e+000  0.000000e+000 -1.000000e+000
    outer loop
      vertex  3.000000e+001  3.000002e+001  0.000000e+000
      vertex -1.999998e+001  4.000000e+001  0.000000e+000
      vertex  2.000002e+001  4.000000e+001  0.000000e+000
    endloop
  endfacet
  facet normal  -0.000000e+000  0.000000e+000 -1.000000e+000
    outer loop
      vertex -1.999998e+001  4.000000e+001  0.000000e+000
      vertex  3.000000e+001  3.000002e+001  0.000000e+000
      vertex -3.000000e+001  2.999998e+001  0.000000e+000
    endloop
  endfacet
  facet normal  0.000000e+000  0.000000e+000 -1.000000e+000
    outer loop
      vertex -3.000000e+001  2.999998e+001  0.000000e+000
      vertex  3.000000e+001  3.000002e+001  0.000000e+000
      vertex  3.000000e+001 -2.999998e+001  0.000000e+000
    endloop
  endfacet
  facet normal  -0.000000e+000  0.000000e+000 -1.000000e+000
    outer loop
      vertex -3.000000e+001  2.999998e+001  0.000000e+000
      vertex  3.000000e+001 -2.999998e+001  0.000000e+000
      vertex -3.000000e+001 -3.000002e+001  0.000000e+000
    endloop
  endfacet
  facet normal  0.000000e+000  0.000000e+000 -1.000000e+000
    outer loop
      vertex -3.000000e+001 -3.000002e+001  0.000000e+000
      vertex  3.000000e+001 -2.999998e+001  0.000000e+000
      vertex  1.999998e+001 -4.000000e+001  0.000000e+000
    endloop
  endfacet
  facet normal  0.000000e+000  0.000000e+000 -1.000000e+000
    outer loop
      vertex -3.000000e+001 -3.000002e+001  0.000000e+000
      vertex  1.999998e+001 -4.000000e+001  0.000000e+000
      vertex -2.000002e+001 -4.000000e+001  0.000000e+000
    endloop
  endfacet
  facet normal -7.071068e-001  7.071068e-001  0.000000e+000
    outer loop
      vertex -3.000000e+001  2.999998e+001  5.000000e+000
      vertex -1.999998e+001  4.000000e+001  5.000000e+000
      vertex -3.000000e+001  2.999998e+001  0.000000e+000
    endloop
  endfacet
  facet normal -7.071068e-001  7.071068e-001  0.000000e+000
    outer loop
      vertex -3.000000e+001  2.999998e+001  0.000000e+000
      vertex -1.999998e+001  4.000000e+001  5.000000e+000
      vertex -1.999998e+001  4.000000e+001  0.000000e+000
    endloop
  endfacet
  facet normal  0.000000e+000  1.000000e+000  0.000000e+000
    outer loop
      vertex -1.999998e+001  4.000000e+001  5.000000e+000
      vertex  2.000002e+001  4.000000e+001  5.000000e+000
      vertex -1.999998e+001  4.000000e+001  0.000000e+000
    endloop
  endfacet
  facet normal  0.000000e+000  1.000000e+000  0.000000e+000
    outer loop
      vertex -1.999998e+001  4.000000e+001  0.000000e+000
      vertex  2.000002e+001  4.000000e+001  5.000000e+000
      vertex  2.000002e+001  4.000000e+001  0.000000e+000
    endloop
  endfacet
  facet normal  7.071068e-001  7.071068e-001  0.000000e+000
    outer loop
      vertex  2.000002e+001  4.000000e+001  5.000000e+000
      vertex  3.000000e+001  3.000002e+001  5.000000e+000
      vertex  2.000002e+001  4.000000e+001  0.000000e+000
    endloop
  endfacet
  facet normal  7.071068e-001  7.071068e-001  0.000000e+000
    outer loop
      vertex  2.000002e+001  4.000000e+001  0.000000e+000
      vertex  3.000000e+001  3.000002e+001  5.000000e+000
      vertex  3.000000e+001  3.000002e+001  0.000000e+000
    endloop
  endfacet
  facet normal  1.000000e+000  -0.000000e+000  0.000000e+000
    outer loop
      vertex  3.000000e+001  3.000002e+001  5.000000e+000
      vertex  3.000000e+001 -2.999998e+001  5.000000e+000
      vertex  3.000000e+001  3.000002e+001  0.000000e+000
    endloop
  endfacet
  facet normal  1.000000e+000  0.000000e+000  0.000000e+000
    outer loop
      vertex  3.000000e+001  3.000002e+001  0.000000e+000
      vertex  3.000000e+001 -2.999998e+001  5.000000e+000
      vertex  3.000000e+001 -2.999998e+001  0.000000e+000
    endloop
  endfacet
  facet normal  7.071068e-001 -7.071068e-001  0.000000e+000
    outer loop
      vertex  3.000000e+001 -2.999998e+001  5.000000e+000
      vertex  1.999998e+001 -4.000000e+001  5.000000e+000
      vertex  3.000000e+001 -2.999998e+001  0.000000e+000
    endloop
  endfacet
  facet normal  7.071068e-001 -7.071068e-001  0.000000e+000
    outer loop
      vertex  3.000000e+001 -2.999998e+001  0.000000e+000
      vertex  1.999998e+001 -4.000000e+001  5.000000e+000
      vertex  1.999998e+001 -4.000000e+001  0.000000e+000
    endloop
  endfacet
  facet normal  0.000000e+000 -1.000000e+000  0.000000e+000
    outer loop
      vertex  1.999998e+001 -4.000000e+001  5.000000e+000
      vertex -2.000002e+001 -4.000000e+001  5.000000e+000
      vertex  1.999998e+001 -4.000000e+001  0.000000e+000
    endloop
  endfacet
  facet normal  0.000000e+000 -1.000000e+000  0.000000e+000
    outer loop
      vertex  1.999998e+001 -4.000000e+001  0.000000e+000
      vertex -2.000002e+001 -4.000000e+001  5.000000e+000
      vertex -2.000002e+001 -4.000000e+001  0.000000e+000
    endloop
  endfacet
  facet normal -7.071068e-001 -7.071068e-001  0.000000e+000
    outer loop
      vertex -2.000002e+001 -4.000000e+001  5.000000e+000
      vertex -3.000000e+001 -3.000002e+001  5.000000e+000
      vertex -2.000002e+001 -4.000000e+001  0.000000e+000
    endloop
  endfacet
  facet normal -7.071068e-001 -7.071068e-001  0.000000e+000
    outer loop
      vertex -2.000002e+001 -4.000000e+001  0.000000e+000
      vertex -3.000000e+001 -3.000002e+001  5.000000e+000
      vertex -3.000000e+001 -3.000002e+001  0.000000e+000
    endloop
  endfacet
  facet normal -1.000000e+000  -0.000000e+000  0.000000e+000
    outer loop
      vertex -3.000000e+001 -3.000002e+001  5.000000e+000
      vertex -3.000000e+001  2.999998e+001  5.000000e+000
      vertex -3.000000e+001 -3.000002e+001  0.000000e+000
    endloop
  endfacet
  facet normal -1.000000e+000  0.000000e+000  0.000000e+000
    outer loop
      vertex -3.000000e+001 -3.000002e+001  0.000000e+000
      vertex -3.000000e+001  2.999998e+001  5.000000e+000
      vertex -3.000000e+001  2.999998e+001  0.000000e+000
    endloop
  endfacet
endsolid CATIA STL
