solid CATIA STL
  facet normal  0.000000e+000  1.000000e+000  -0.000000e+000
    outer loop
      vertex  4.000000e+001  2.500000e+000  5.000000e+000
      vertex  3.227737e+001  2.500000e+000 -5.000000e+000
      vertex -3.272263e+001  2.500000e+000 -5.000000e+000
    endloop
  endfacet
  facet normal  0.000000e+000  1.000000e+000  -0.000000e+000
    outer loop
      vertex  4.000000e+001  2.500000e+000  5.000000e+000
      vertex  3.977737e+001  2.500000e+000 -1.500000e+001
      vertex  3.227737e+001  2.500000e+000 -5.000000e+000
    endloop
  endfacet
  facet normal  0.000000e+000  1.000000e+000  0.000000e+000
    outer loop
      vertex -5.000000e+001  2.500000e+000 -3.000000e+001
      vertex -2.000000e+001  2.500000e+000 -4.000000e+001
      vertex -4.000000e+001  2.500000e+000 -4.000000e+001
    endloop
  endfacet
  facet normal  0.000000e+000  1.000000e+000  0.000000e+000
    outer loop
      vertex -4.000000e+001  2.500000e+000  5.000000e+000
      vertex  4.000000e+001  2.500000e+000  5.000000e+000
      vertex -3.272263e+001  2.500000e+000 -5.000000e+000
    endloop
  endfacet
  facet normal  0.000000e+000  1.000000e+000  0.000000e+000
    outer loop
      vertex -4.000000e+001  2.500000e+000  5.000000e+000
      vertex -3.272263e+001  2.500000e+000 -5.000000e+000
      vertex -4.022263e+001  2.500000e+000 -1.500000e+001
    endloop
  endfacet
  facet normal  0.000000e+000  1.000000e+000  -0.000000e+000
    outer loop
      vertex -4.000000e+001  2.500000e+000  5.000000e+000
      vertex -4.022263e+001  2.500000e+000 -1.500000e+001
      vertex -5.000000e+001  2.500000e+000  3.000000e+001
    endloop
  endfacet
  facet normal  0.000000e+000  1.000000e+000  0.000000e+000
    outer loop
      vertex -4.000000e+001  2.500000e+000  5.000000e+000
      vertex -5.000000e+001  2.500000e+000  3.000000e+001
      vertex -4.000000e+001  2.500000e+000  2.000000e+001
    endloop
  endfacet
  facet normal  0.000000e+000  1.000000e+000  -0.000000e+000
    outer loop
      vertex  5.000000e+001  2.500000e+000  3.000000e+001
      vertex  5.000000e+001  2.500000e+000 -3.000000e+001
      vertex  4.000000e+001  2.500000e+000  5.000000e+000
    endloop
  endfacet
  facet normal  0.000000e+000  1.000000e+000  0.000000e+000
    outer loop
      vertex  5.000000e+001  2.500000e+000  3.000000e+001
      vertex  4.000000e+001  2.500000e+000  5.000000e+000
      vertex  4.000000e+001  2.500000e+000  2.000000e+001
    endloop
  endfacet
  facet normal  0.000000e+000  1.000000e+000  -0.000000e+000
    outer loop
      vertex  5.000000e+001  2.500000e+000  3.000000e+001
      vertex  4.000000e+001  2.500000e+000  2.000000e+001
      vertex  3.250000e+001  2.500000e+000  3.000000e+001
    endloop
  endfacet
  facet normal  0.000000e+000  1.000000e+000  0.000000e+000
    outer loop
      vertex  5.000000e+001  2.500000e+000  3.000000e+001
      vertex  3.250000e+001  2.500000e+000  3.000000e+001
      vertex  4.000000e+001  2.500000e+000  4.000000e+001
    endloop
  endfacet
  facet normal  0.000000e+000  1.000000e+000  -0.000000e+000
    outer loop
      vertex -1.000000e+001  2.500000e+000 -4.000000e+001
      vertex -1.000000e+001  2.500000e+000 -4.866667e+001
      vertex -2.000000e+001  2.500000e+000 -4.866667e+001
    endloop
  endfacet
  facet normal  0.000000e+000  1.000000e+000  0.000000e+000
    outer loop
      vertex -1.000000e+001  2.500000e+000 -4.000000e+001
      vertex -2.000000e+001  2.500000e+000 -4.866667e+001
      vertex -2.000000e+001  2.500000e+000 -4.000000e+001
    endloop
  endfacet
  facet normal  0.000000e+000  1.000000e+000  -0.000000e+000
    outer loop
      vertex -1.000000e+001  2.500000e+000 -4.000000e+001
      vertex -2.000000e+001  2.500000e+000 -4.000000e+001
      vertex -5.000000e+001  2.500000e+000 -3.000000e+001
    endloop
  endfacet
  facet normal  -0.000000e+000  1.000000e+000  0.000000e+000
    outer loop
      vertex -1.000000e+001  2.500000e+000 -4.000000e+001
      vertex -5.000000e+001  2.500000e+000 -3.000000e+001
      vertex -4.022263e+001  2.500000e+000 -3.000000e+001
    endloop
  endfacet
  facet normal  -0.000000e+000  1.000000e+000  0.000000e+000
    outer loop
      vertex -1.000000e+001  2.500000e+000 -4.000000e+001
      vertex -4.022263e+001  2.500000e+000 -3.000000e+001
      vertex  3.977737e+001  2.500000e+000 -3.000000e+001
    endloop
  endfacet
  facet normal  0.000000e+000  1.000000e+000  0.000000e+000
    outer loop
      vertex -1.000000e+001  2.500000e+000 -4.000000e+001
      vertex  3.977737e+001  2.500000e+000 -3.000000e+001
      vertex  1.000000e+001  2.500000e+000 -4.000000e+001
    endloop
  endfacet
  facet normal  0.000000e+000  1.000000e+000  -0.000000e+000
    outer loop
      vertex  2.000000e+001  2.500000e+000 -4.000000e+001
      vertex  2.000000e+001  2.500000e+000 -4.866667e+001
      vertex  1.000000e+001  2.500000e+000 -4.866667e+001
    endloop
  endfacet
  facet normal  0.000000e+000  1.000000e+000  0.000000e+000
    outer loop
      vertex  2.000000e+001  2.500000e+000 -4.000000e+001
      vertex  1.000000e+001  2.500000e+000 -4.866667e+001
      vertex  1.000000e+001  2.500000e+000 -4.000000e+001
    endloop
  endfacet
  facet normal  0.000000e+000  1.000000e+000  0.000000e+000
    outer loop
      vertex  2.000000e+001  2.500000e+000 -4.000000e+001
      vertex  1.000000e+001  2.500000e+000 -4.000000e+001
      vertex  3.977737e+001  2.500000e+000 -3.000000e+001
    endloop
  endfacet
  facet normal  0.000000e+000  1.000000e+000  0.000000e+000
    outer loop
      vertex  2.000000e+001  2.500000e+000 -4.000000e+001
      vertex  3.977737e+001  2.500000e+000 -3.000000e+001
      vertex  4.000000e+001  2.500000e+000 -4.000000e+001
    endloop
  endfacet
  facet normal  0.000000e+000  1.000000e+000  -0.000000e+000
    outer loop
      vertex  5.000000e+001  2.500000e+000 -3.000000e+001
      vertex  4.000000e+001  2.500000e+000 -4.000000e+001
      vertex  3.977737e+001  2.500000e+000 -3.000000e+001
    endloop
  endfacet
  facet normal  0.000000e+000  1.000000e+000  0.000000e+000
    outer loop
      vertex  5.000000e+001  2.500000e+000 -3.000000e+001
      vertex  3.977737e+001  2.500000e+000 -3.000000e+001
      vertex  3.977737e+001  2.500000e+000 -1.500000e+001
    endloop
  endfacet
  facet normal  -0.000000e+000  1.000000e+000  0.000000e+000
    outer loop
      vertex  5.000000e+001  2.500000e+000 -3.000000e+001
      vertex  3.977737e+001  2.500000e+000 -1.500000e+001
      vertex  4.000000e+001  2.500000e+000  5.000000e+000
    endloop
  endfacet
  facet normal  0.000000e+000  1.000000e+000  -0.000000e+000
    outer loop
      vertex  4.000000e+001  2.500000e+000  4.000000e+001
      vertex  3.250000e+001  2.500000e+000  3.000000e+001
      vertex -4.000000e+001  2.500000e+000  4.000000e+001
    endloop
  endfacet
  facet normal  0.000000e+000  1.000000e+000  0.000000e+000
    outer loop
      vertex -4.000000e+001  2.500000e+000  4.000000e+001
      vertex  3.250000e+001  2.500000e+000  3.000000e+001
      vertex -3.250000e+001  2.500000e+000  3.000000e+001
    endloop
  endfacet
  facet normal  0.000000e+000  1.000000e+000  0.000000e+000
    outer loop
      vertex -4.000000e+001  2.500000e+000  4.000000e+001
      vertex -3.250000e+001  2.500000e+000  3.000000e+001
      vertex -5.000000e+001  2.500000e+000  3.000000e+001
    endloop
  endfacet
  facet normal  -0.000000e+000  1.000000e+000  0.000000e+000
    outer loop
      vertex -5.000000e+001  2.500000e+000  3.000000e+001
      vertex -3.250000e+001  2.500000e+000  3.000000e+001
      vertex -4.000000e+001  2.500000e+000  2.000000e+001
    endloop
  endfacet
  facet normal  0.000000e+000  1.000000e+000  -0.000000e+000
    outer loop
      vertex -4.022263e+001  2.500000e+000 -1.500000e+001
      vertex -4.022263e+001  2.500000e+000 -3.000000e+001
      vertex -5.000000e+001  2.500000e+000  3.000000e+001
    endloop
  endfacet
  facet normal  0.000000e+000  1.000000e+000  0.000000e+000
    outer loop
      vertex -5.000000e+001  2.500000e+000  3.000000e+001
      vertex -4.022263e+001  2.500000e+000 -3.000000e+001
      vertex -5.000000e+001  2.500000e+000 -3.000000e+001
    endloop
  endfacet
  facet normal -8.000000e-001  0.000000e+000  6.000000e-001
    outer loop
      vertex -4.022263e+001  3.500000e+000 -1.500000e+001
      vertex -4.022263e+001  2.500000e+000 -1.500000e+001
      vertex -3.272263e+001  3.500000e+000 -5.000000e+000
    endloop
  endfacet
  facet normal -8.000000e-001  0.000000e+000  6.000000e-001
    outer loop
      vertex -3.272263e+001  3.500000e+000 -5.000000e+000
      vertex -4.022263e+001  2.500000e+000 -1.500000e+001
      vertex -3.272263e+001  2.500000e+000 -5.000000e+000
    endloop
  endfacet
  facet normal -1.000000e+000  0.000000e+000  0.000000e+000
    outer loop
      vertex -4.022263e+001  3.500000e+000 -3.000000e+001
      vertex -4.022263e+001  2.500000e+000 -3.000000e+001
      vertex -4.022263e+001  3.500000e+000 -1.500000e+001
    endloop
  endfacet
  facet normal -1.000000e+000  -0.000000e+000  0.000000e+000
    outer loop
      vertex -4.022263e+001  3.500000e+000 -1.500000e+001
      vertex -4.022263e+001  2.500000e+000 -3.000000e+001
      vertex -4.022263e+001  2.500000e+000 -1.500000e+001
    endloop
  endfacet
  facet normal  0.000000e+000  0.000000e+000 -1.000000e+000
    outer loop
      vertex  3.977737e+001  3.500000e+000 -3.000000e+001
      vertex  3.977737e+001  2.500000e+000 -3.000000e+001
      vertex -4.022263e+001  3.500000e+000 -3.000000e+001
    endloop
  endfacet
  facet normal  0.000000e+000  0.000000e+000 -1.000000e+000
    outer loop
      vertex -4.022263e+001  3.500000e+000 -3.000000e+001
      vertex  3.977737e+001  2.500000e+000 -3.000000e+001
      vertex -4.022263e+001  2.500000e+000 -3.000000e+001
    endloop
  endfacet
  facet normal  1.000000e+000  -0.000000e+000  0.000000e+000
    outer loop
      vertex  3.977737e+001  3.500000e+000 -1.500000e+001
      vertex  3.977737e+001  2.500000e+000 -1.500000e+001
      vertex  3.977737e+001  3.500000e+000 -3.000000e+001
    endloop
  endfacet
  facet normal  1.000000e+000  0.000000e+000  0.000000e+000
    outer loop
      vertex  3.977737e+001  3.500000e+000 -3.000000e+001
      vertex  3.977737e+001  2.500000e+000 -1.500000e+001
      vertex  3.977737e+001  2.500000e+000 -3.000000e+001
    endloop
  endfacet
  facet normal  8.000000e-001  -0.000000e+000  6.000000e-001
    outer loop
      vertex  3.227737e+001  3.500000e+000 -5.000000e+000
      vertex  3.227737e+001  2.500000e+000 -5.000000e+000
      vertex  3.977737e+001  3.500000e+000 -1.500000e+001
    endloop
  endfacet
  facet normal  8.000000e-001  0.000000e+000  6.000000e-001
    outer loop
      vertex  3.977737e+001  3.500000e+000 -1.500000e+001
      vertex  3.227737e+001  2.500000e+000 -5.000000e+000
      vertex  3.977737e+001  2.500000e+000 -1.500000e+001
    endloop
  endfacet
  facet normal  0.000000e+000  0.000000e+000  1.000000e+000
    outer loop
      vertex -3.272263e+001  3.500000e+000 -5.000000e+000
      vertex -3.272263e+001  2.500000e+000 -5.000000e+000
      vertex  3.227737e+001  3.500000e+000 -5.000000e+000
    endloop
  endfacet
  facet normal  0.000000e+000  0.000000e+000  1.000000e+000
    outer loop
      vertex  3.227737e+001  3.500000e+000 -5.000000e+000
      vertex -3.272263e+001  2.500000e+000 -5.000000e+000
      vertex  3.227737e+001  2.500000e+000 -5.000000e+000
    endloop
  endfacet
  facet normal  1.000000e+000  -0.000000e+000  0.000000e+000
    outer loop
      vertex  4.000000e+001  3.500000e+000  2.000000e+001
      vertex  4.000000e+001  2.500000e+000  2.000000e+001
      vertex  4.000000e+001  3.500000e+000  5.000000e+000
    endloop
  endfacet
  facet normal  1.000000e+000  0.000000e+000  0.000000e+000
    outer loop
      vertex  4.000000e+001  3.500000e+000  5.000000e+000
      vertex  4.000000e+001  2.500000e+000  2.000000e+001
      vertex  4.000000e+001  2.500000e+000  5.000000e+000
    endloop
  endfacet
  facet normal  8.000000e-001  -0.000000e+000  6.000000e-001
    outer loop
      vertex  3.250000e+001  3.500000e+000  3.000000e+001
      vertex  3.250000e+001  2.500000e+000  3.000000e+001
      vertex  4.000000e+001  3.500000e+000  2.000000e+001
    endloop
  endfacet
  facet normal  8.000000e-001  0.000000e+000  6.000000e-001
    outer loop
      vertex  4.000000e+001  3.500000e+000  2.000000e+001
      vertex  3.250000e+001  2.500000e+000  3.000000e+001
      vertex  4.000000e+001  2.500000e+000  2.000000e+001
    endloop
  endfacet
  facet normal  0.000000e+000  0.000000e+000  1.000000e+000
    outer loop
      vertex -3.250000e+001  3.500000e+000  3.000000e+001
      vertex -3.250000e+001  2.500000e+000  3.000000e+001
      vertex  3.250000e+001  3.500000e+000  3.000000e+001
    endloop
  endfacet
  facet normal  0.000000e+000  0.000000e+000  1.000000e+000
    outer loop
      vertex  3.250000e+001  3.500000e+000  3.000000e+001
      vertex -3.250000e+001  2.500000e+000  3.000000e+001
      vertex  3.250000e+001  2.500000e+000  3.000000e+001
    endloop
  endfacet
  facet normal -8.000000e-001  0.000000e+000  6.000000e-001
    outer loop
      vertex -4.000000e+001  3.500000e+000  2.000000e+001
      vertex -4.000000e+001  2.500000e+000  2.000000e+001
      vertex -3.250000e+001  3.500000e+000  3.000000e+001
    endloop
  endfacet
  facet normal -8.000000e-001  0.000000e+000  6.000000e-001
    outer loop
      vertex -3.250000e+001  3.500000e+000  3.000000e+001
      vertex -4.000000e+001  2.500000e+000  2.000000e+001
      vertex -3.250000e+001  2.500000e+000  3.000000e+001
    endloop
  endfacet
  facet normal -1.000000e+000  0.000000e+000  0.000000e+000
    outer loop
      vertex -4.000000e+001  3.500000e+000  5.000000e+000
      vertex -4.000000e+001  2.500000e+000  5.000000e+000
      vertex -4.000000e+001  3.500000e+000  2.000000e+001
    endloop
  endfacet
  facet normal -1.000000e+000  -0.000000e+000  0.000000e+000
    outer loop
      vertex -4.000000e+001  3.500000e+000  2.000000e+001
      vertex -4.000000e+001  2.500000e+000  5.000000e+000
      vertex -4.000000e+001  2.500000e+000  2.000000e+001
    endloop
  endfacet
  facet normal  0.000000e+000  0.000000e+000 -1.000000e+000
    outer loop
      vertex  4.000000e+001  3.500000e+000  5.000000e+000
      vertex  4.000000e+001  2.500000e+000  5.000000e+000
      vertex -4.000000e+001  3.500000e+000  5.000000e+000
    endloop
  endfacet
  facet normal  0.000000e+000  0.000000e+000 -1.000000e+000
    outer loop
      vertex -4.000000e+001  3.500000e+000  5.000000e+000
      vertex  4.000000e+001  2.500000e+000  5.000000e+000
      vertex -4.000000e+001  2.500000e+000  5.000000e+000
    endloop
  endfacet
  facet normal  0.000000e+000  1.000000e+000  0.000000e+000
    outer loop
      vertex -3.272263e+001  3.500000e+000 -5.000000e+000
      vertex  3.227737e+001  3.500000e+000 -5.000000e+000
      vertex -4.022263e+001  3.500000e+000 -1.500000e+001
    endloop
  endfacet
  facet normal  0.000000e+000  1.000000e+000  0.000000e+000
    outer loop
      vertex -4.022263e+001  3.500000e+000 -1.500000e+001
      vertex  3.227737e+001  3.500000e+000 -5.000000e+000
      vertex  3.977737e+001  3.500000e+000 -1.500000e+001
    endloop
  endfacet
  facet normal  0.000000e+000  1.000000e+000  0.000000e+000
    outer loop
      vertex -4.022263e+001  3.500000e+000 -1.500000e+001
      vertex  3.977737e+001  3.500000e+000 -1.500000e+001
      vertex -4.022263e+001  3.500000e+000 -3.000000e+001
    endloop
  endfacet
  facet normal  0.000000e+000  1.000000e+000  0.000000e+000
    outer loop
      vertex -4.022263e+001  3.500000e+000 -3.000000e+001
      vertex  3.977737e+001  3.500000e+000 -1.500000e+001
      vertex  3.977737e+001  3.500000e+000 -3.000000e+001
    endloop
  endfacet
  facet normal  0.000000e+000  1.000000e+000  0.000000e+000
    outer loop
      vertex -3.250000e+001  3.500000e+000  3.000000e+001
      vertex  3.250000e+001  3.500000e+000  3.000000e+001
      vertex -4.000000e+001  3.500000e+000  2.000000e+001
    endloop
  endfacet
  facet normal  0.000000e+000  1.000000e+000  0.000000e+000
    outer loop
      vertex -4.000000e+001  3.500000e+000  2.000000e+001
      vertex  3.250000e+001  3.500000e+000  3.000000e+001
      vertex  4.000000e+001  3.500000e+000  2.000000e+001
    endloop
  endfacet
  facet normal  0.000000e+000  1.000000e+000  0.000000e+000
    outer loop
      vertex -4.000000e+001  3.500000e+000  2.000000e+001
      vertex  4.000000e+001  3.500000e+000  2.000000e+001
      vertex -4.000000e+001  3.500000e+000  5.000000e+000
    endloop
  endfacet
  facet normal  0.000000e+000  1.000000e+000  0.000000e+000
    outer loop
      vertex -4.000000e+001  3.500000e+000  5.000000e+000
      vertex  4.000000e+001  3.500000e+000  2.000000e+001
      vertex  4.000000e+001  3.500000e+000  5.000000e+000
    endloop
  endfacet
  facet normal  0.000000e+000 -1.000000e+000  0.000000e+000
    outer loop
      vertex -5.000000e+001  0.000000e+000 -3.000000e+001
      vertex -4.000000e+001  0.000000e+000 -4.000000e+001
      vertex -2.000000e+001  0.000000e+000 -4.000000e+001
    endloop
  endfacet
  facet normal  0.000000e+000 -1.000000e+000  0.000000e+000
    outer loop
      vertex -5.000000e+001  0.000000e+000 -3.000000e+001
      vertex -2.000000e+001  0.000000e+000 -4.000000e+001
      vertex -1.000000e+001  0.000000e+000 -4.000000e+001
    endloop
  endfacet
  facet normal  0.000000e+000 -1.000000e+000  0.000000e+000
    outer loop
      vertex -5.000000e+001  0.000000e+000 -3.000000e+001
      vertex -1.000000e+001  0.000000e+000 -4.000000e+001
      vertex  1.000000e+001  0.000000e+000 -4.000000e+001
    endloop
  endfacet
  facet normal  0.000000e+000 -1.000000e+000  0.000000e+000
    outer loop
      vertex -5.000000e+001  0.000000e+000 -3.000000e+001
      vertex  1.000000e+001  0.000000e+000 -4.000000e+001
      vertex  2.000000e+001  0.000000e+000 -4.000000e+001
    endloop
  endfacet
  facet normal  0.000000e+000 -1.000000e+000  0.000000e+000
    outer loop
      vertex -5.000000e+001  0.000000e+000 -3.000000e+001
      vertex  2.000000e+001  0.000000e+000 -4.000000e+001
      vertex  4.000000e+001  0.000000e+000 -4.000000e+001
    endloop
  endfacet
  facet normal  0.000000e+000 -1.000000e+000  0.000000e+000
    outer loop
      vertex -5.000000e+001  0.000000e+000 -3.000000e+001
      vertex  4.000000e+001  0.000000e+000 -4.000000e+001
      vertex  5.000000e+001  0.000000e+000 -3.000000e+001
    endloop
  endfacet
  facet normal  0.000000e+000 -1.000000e+000  0.000000e+000
    outer loop
      vertex -5.000000e+001  0.000000e+000 -3.000000e+001
      vertex  5.000000e+001  0.000000e+000 -3.000000e+001
      vertex  5.000000e+001  0.000000e+000  3.000000e+001
    endloop
  endfacet
  facet normal  -0.000000e+000 -1.000000e+000  0.000000e+000
    outer loop
      vertex -5.000000e+001  0.000000e+000 -3.000000e+001
      vertex  5.000000e+001  0.000000e+000  3.000000e+001
      vertex -5.000000e+001  0.000000e+000  3.000000e+001
    endloop
  endfacet
  facet normal  0.000000e+000 -1.000000e+000  -0.000000e+000
    outer loop
      vertex  5.000000e+001  0.000000e+000  3.000000e+001
      vertex  4.000000e+001  0.000000e+000  4.000000e+001
      vertex -5.000000e+001  0.000000e+000  3.000000e+001
    endloop
  endfacet
  facet normal  0.000000e+000 -1.000000e+000  0.000000e+000
    outer loop
      vertex -5.000000e+001  0.000000e+000  3.000000e+001
      vertex  4.000000e+001  0.000000e+000  4.000000e+001
      vertex -4.000000e+001  0.000000e+000  4.000000e+001
    endloop
  endfacet
  facet normal  0.000000e+000 -1.000000e+000  -0.000000e+000
    outer loop
      vertex  2.000000e+001  0.000000e+000 -4.866667e+001
      vertex  2.000000e+001  0.000000e+000 -4.000000e+001
      vertex  1.000000e+001  0.000000e+000 -4.866667e+001
    endloop
  endfacet
  facet normal  0.000000e+000 -1.000000e+000  0.000000e+000
    outer loop
      vertex  1.000000e+001  0.000000e+000 -4.866667e+001
      vertex  2.000000e+001  0.000000e+000 -4.000000e+001
      vertex  1.000000e+001  0.000000e+000 -4.000000e+001
    endloop
  endfacet
  facet normal  0.000000e+000 -1.000000e+000  -0.000000e+000
    outer loop
      vertex -1.000000e+001  0.000000e+000 -4.866667e+001
      vertex -1.000000e+001  0.000000e+000 -4.000000e+001
      vertex -2.000000e+001  0.000000e+000 -4.866667e+001
    endloop
  endfacet
  facet normal  0.000000e+000 -1.000000e+000  0.000000e+000
    outer loop
      vertex -2.000000e+001  0.000000e+000 -4.866667e+001
      vertex -1.000000e+001  0.000000e+000 -4.000000e+001
      vertex -2.000000e+001  0.000000e+000 -4.000000e+001
    endloop
  endfacet
  facet normal  7.071068e-001  -0.000000e+000  7.071068e-001
    outer loop
      vertex  4.000000e+001  2.500000e+000  4.000000e+001
      vertex  4.000000e+001  0.000000e+000  4.000000e+001
      vertex  5.000000e+001  2.500000e+000  3.000000e+001
    endloop
  endfacet
  facet normal  7.071068e-001  0.000000e+000  7.071068e-001
    outer loop
      vertex  5.000000e+001  2.500000e+000  3.000000e+001
      vertex  4.000000e+001  0.000000e+000  4.000000e+001
      vertex  5.000000e+001  0.000000e+000  3.000000e+001
    endloop
  endfacet
  facet normal  0.000000e+000  0.000000e+000  1.000000e+000
    outer loop
      vertex -4.000000e+001  2.500000e+000  4.000000e+001
      vertex -4.000000e+001  0.000000e+000  4.000000e+001
      vertex  4.000000e+001  2.500000e+000  4.000000e+001
    endloop
  endfacet
  facet normal  0.000000e+000  0.000000e+000  1.000000e+000
    outer loop
      vertex  4.000000e+001  2.500000e+000  4.000000e+001
      vertex -4.000000e+001  0.000000e+000  4.000000e+001
      vertex  4.000000e+001  0.000000e+000  4.000000e+001
    endloop
  endfacet
  facet normal -7.071068e-001  0.000000e+000  7.071068e-001
    outer loop
      vertex -5.000000e+001  2.500000e+000  3.000000e+001
      vertex -5.000000e+001  0.000000e+000  3.000000e+001
      vertex -4.000000e+001  2.500000e+000  4.000000e+001
    endloop
  endfacet
  facet normal -7.071068e-001  0.000000e+000  7.071068e-001
    outer loop
      vertex -4.000000e+001  2.500000e+000  4.000000e+001
      vertex -5.000000e+001  0.000000e+000  3.000000e+001
      vertex -4.000000e+001  0.000000e+000  4.000000e+001
    endloop
  endfacet
  facet normal -1.000000e+000  0.000000e+000  0.000000e+000
    outer loop
      vertex -5.000000e+001  2.500000e+000 -3.000000e+001
      vertex -5.000000e+001  0.000000e+000 -3.000000e+001
      vertex -5.000000e+001  2.500000e+000  3.000000e+001
    endloop
  endfacet
  facet normal -1.000000e+000  -0.000000e+000  0.000000e+000
    outer loop
      vertex -5.000000e+001  2.500000e+000  3.000000e+001
      vertex -5.000000e+001  0.000000e+000 -3.000000e+001
      vertex -5.000000e+001  0.000000e+000  3.000000e+001
    endloop
  endfacet
  facet normal -7.071068e-001  0.000000e+000 -7.071068e-001
    outer loop
      vertex -4.000000e+001  2.500000e+000 -4.000000e+001
      vertex -4.000000e+001  0.000000e+000 -4.000000e+001
      vertex -5.000000e+001  2.500000e+000 -3.000000e+001
    endloop
  endfacet
  facet normal -7.071068e-001  -0.000000e+000 -7.071068e-001
    outer loop
      vertex -5.000000e+001  2.500000e+000 -3.000000e+001
      vertex -4.000000e+001  0.000000e+000 -4.000000e+001
      vertex -5.000000e+001  0.000000e+000 -3.000000e+001
    endloop
  endfacet
  facet normal  0.000000e+000  0.000000e+000 -1.000000e+000
    outer loop
      vertex -2.000000e+001  2.500000e+000 -4.000000e+001
      vertex -2.000000e+001  0.000000e+000 -4.000000e+001
      vertex -4.000000e+001  2.500000e+000 -4.000000e+001
    endloop
  endfacet
  facet normal  0.000000e+000  0.000000e+000 -1.000000e+000
    outer loop
      vertex -4.000000e+001  2.500000e+000 -4.000000e+001
      vertex -2.000000e+001  0.000000e+000 -4.000000e+001
      vertex -4.000000e+001  0.000000e+000 -4.000000e+001
    endloop
  endfacet
  facet normal -1.000000e+000  0.000000e+000  0.000000e+000
    outer loop
      vertex -2.000000e+001  2.500000e+000 -4.866667e+001
      vertex -2.000000e+001  0.000000e+000 -4.866667e+001
      vertex -2.000000e+001  2.500000e+000 -4.000000e+001
    endloop
  endfacet
  facet normal -1.000000e+000  -0.000000e+000  0.000000e+000
    outer loop
      vertex -2.000000e+001  2.500000e+000 -4.000000e+001
      vertex -2.000000e+001  0.000000e+000 -4.866667e+001
      vertex -2.000000e+001  0.000000e+000 -4.000000e+001
    endloop
  endfacet
  facet normal  0.000000e+000  0.000000e+000 -1.000000e+000
    outer loop
      vertex -1.000000e+001  2.500000e+000 -4.866667e+001
      vertex -1.000000e+001  0.000000e+000 -4.866667e+001
      vertex -2.000000e+001  2.500000e+000 -4.866667e+001
    endloop
  endfacet
  facet normal  0.000000e+000  0.000000e+000 -1.000000e+000
    outer loop
      vertex -2.000000e+001  2.500000e+000 -4.866667e+001
      vertex -1.000000e+001  0.000000e+000 -4.866667e+001
      vertex -2.000000e+001  0.000000e+000 -4.866667e+001
    endloop
  endfacet
  facet normal  1.000000e+000  -0.000000e+000  0.000000e+000
    outer loop
      vertex -1.000000e+001  2.500000e+000 -4.000000e+001
      vertex -1.000000e+001  0.000000e+000 -4.000000e+001
      vertex -1.000000e+001  2.500000e+000 -4.866667e+001
    endloop
  endfacet
  facet normal  1.000000e+000  0.000000e+000  0.000000e+000
    outer loop
      vertex -1.000000e+001  2.500000e+000 -4.866667e+001
      vertex -1.000000e+001  0.000000e+000 -4.000000e+001
      vertex -1.000000e+001  0.000000e+000 -4.866667e+001
    endloop
  endfacet
  facet normal  0.000000e+000  0.000000e+000 -1.000000e+000
    outer loop
      vertex  1.000000e+001  2.500000e+000 -4.000000e+001
      vertex  1.000000e+001  0.000000e+000 -4.000000e+001
      vertex -1.000000e+001  2.500000e+000 -4.000000e+001
    endloop
  endfacet
  facet normal  0.000000e+000  0.000000e+000 -1.000000e+000
    outer loop
      vertex -1.000000e+001  2.500000e+000 -4.000000e+001
      vertex  1.000000e+001  0.000000e+000 -4.000000e+001
      vertex -1.000000e+001  0.000000e+000 -4.000000e+001
    endloop
  endfacet
  facet normal -1.000000e+000  0.000000e+000  0.000000e+000
    outer loop
      vertex  1.000000e+001  2.500000e+000 -4.866667e+001
      vertex  1.000000e+001  0.000000e+000 -4.866667e+001
      vertex  1.000000e+001  2.500000e+000 -4.000000e+001
    endloop
  endfacet
  facet normal -1.000000e+000  -0.000000e+000  0.000000e+000
    outer loop
      vertex  1.000000e+001  2.500000e+000 -4.000000e+001
      vertex  1.000000e+001  0.000000e+000 -4.866667e+001
      vertex  1.000000e+001  0.000000e+000 -4.000000e+001
    endloop
  endfacet
  facet normal  0.000000e+000  0.000000e+000 -1.000000e+000
    outer loop
      vertex  2.000000e+001  2.500000e+000 -4.866667e+001
      vertex  2.000000e+001  0.000000e+000 -4.866667e+001
      vertex  1.000000e+001  2.500000e+000 -4.866667e+001
    endloop
  endfacet
  facet normal  0.000000e+000  0.000000e+000 -1.000000e+000
    outer loop
      vertex  1.000000e+001  2.500000e+000 -4.866667e+001
      vertex  2.000000e+001  0.000000e+000 -4.866667e+001
      vertex  1.000000e+001  0.000000e+000 -4.866667e+001
    endloop
  endfacet
  facet normal  1.000000e+000  -0.000000e+000  0.000000e+000
    outer loop
      vertex  2.000000e+001  2.500000e+000 -4.000000e+001
      vertex  2.000000e+001  0.000000e+000 -4.000000e+001
      vertex  2.000000e+001  2.500000e+000 -4.866667e+001
    endloop
  endfacet
  facet normal  1.000000e+000  0.000000e+000  0.000000e+000
    outer loop
      vertex  2.000000e+001  2.500000e+000 -4.866667e+001
      vertex  2.000000e+001  0.000000e+000 -4.000000e+001
      vertex  2.000000e+001  0.000000e+000 -4.866667e+001
    endloop
  endfacet
  facet normal  0.000000e+000  0.000000e+000 -1.000000e+000
    outer loop
      vertex  4.000000e+001  2.500000e+000 -4.000000e+001
      vertex  4.000000e+001  0.000000e+000 -4.000000e+001
      vertex  2.000000e+001  2.500000e+000 -4.000000e+001
    endloop
  endfacet
  facet normal  0.000000e+000  0.000000e+000 -1.000000e+000
    outer loop
      vertex  2.000000e+001  2.500000e+000 -4.000000e+001
      vertex  4.000000e+001  0.000000e+000 -4.000000e+001
      vertex  2.000000e+001  0.000000e+000 -4.000000e+001
    endloop
  endfacet
  facet normal  7.071068e-001  0.000000e+000 -7.071068e-001
    outer loop
      vertex  5.000000e+001  2.500000e+000 -3.000000e+001
      vertex  5.000000e+001  0.000000e+000 -3.000000e+001
      vertex  4.000000e+001  2.500000e+000 -4.000000e+001
    endloop
  endfacet
  facet normal  7.071068e-001  0.000000e+000 -7.071068e-001
    outer loop
      vertex  4.000000e+001  2.500000e+000 -4.000000e+001
      vertex  5.000000e+001  0.000000e+000 -3.000000e+001
      vertex  4.000000e+001  0.000000e+000 -4.000000e+001
    endloop
  endfacet
  facet normal  1.000000e+000  -0.000000e+000  0.000000e+000
    outer loop
      vertex  5.000000e+001  2.500000e+000  3.000000e+001
      vertex  5.000000e+001  0.000000e+000  3.000000e+001
      vertex  5.000000e+001  2.500000e+000 -3.000000e+001
    endloop
  endfacet
  facet normal  1.000000e+000  0.000000e+000  0.000000e+000
    outer loop
      vertex  5.000000e+001  2.500000e+000 -3.000000e+001
      vertex  5.000000e+001  0.000000e+000  3.000000e+001
      vertex  5.000000e+001  0.000000e+000 -3.000000e+001
    endloop
  endfacet
endsolid CATIA STL
