# File produced by Open Asset Import Library (http://www.assimp.sf.net)
# (assimp v3.1.187496374)

mtllib Test5.obj.mtl

# 28 vertex positions
v  -1.34492 2 5.89247
v  1.34492 2 5.89247
v  -3.76838 2 4.72539
v  3.76838 2 4.72539
v  -5.44546 2 2.6224
v  5.44546 2 2.6224
v  -6.044 2 0
v  6.044 2 -1.9439e-15
v  -5.44546 2 -2.6224
v  5.44546 2 -2.6224
v  -3.76838 2 -4.72539
v  3.76838 2 -4.72539
v  -1.34492 2 -5.89247
v  1.34492 2 -5.89247
v  -6.044 -2 0
v  5.44546 -2 2.6224
v  -5.44546 -2 2.6224
v  6.044 -2 -1.9439e-15
v  -5.44546 -2 -2.6224
v  3.76838 -2 4.72539
v  -3.76838 -2 4.72539
v  1.34492 -2 5.89247
v  -1.34492 -2 5.89247
v  5.44546 -2 -2.6224
v  -3.76838 -2 -4.72539
v  3.76838 -2 -4.72539
v  -1.34492 -2 -5.89247
v  1.34492 -2 -5.89247

# 0 UV coordinates

# 18 vertex normals
vn 0 1 0
vn 0 1 0
vn 0 -1 0
vn 0 -1 0
vn -0.974928 -0 -0.222521
vn -0.781831 -0 -0.62349
vn -0.433884 -0 -0.900969
vn 0 0 -1
vn 0.433884 0 -0.900969
vn 0.781831 0 -0.62349
vn 0.974928 0 -0.222521
vn 0.974928 0 0.222521
vn 0.781831 0 0.62349
vn 0.433884 0 0.900969
vn 0 0 1
vn -0.433884 0 0.900969
vn -0.781831 0 0.62349
vn -0.974928 0 0.222521

# Mesh 'CATIA' with 52 faces
g CATIA
usemtl DefaultMaterial
f  1//1 2//1 3//1
f  3//1 2//1 4//1
f  3//1 4//1 5//1
f  5//1 4//1 6//1
f  5//1 6//1 7//2
f  7//2 6//1 8//1
f  7//2 8//1 9//1
f  9//1 8//1 10//2
f  9//1 10//2 11//1
f  11//1 10//2 12//1
f  11//1 12//1 13//1
f  13//1 12//1 14//1
f  15//3 16//3 17//3
f  16//3 15//3 18//4
f  18//4 15//3 19//4
f  17//3 16//3 20//4
f  17//3 20//4 21//4
f  21//4 20//4 22//4
f  21//4 22//4 23//4
f  18//4 19//4 24//3
f  24//3 19//4 25//4
f  24//3 25//4 26//4
f  26//4 25//4 27//4
f  26//4 27//4 28//4
f  15//5 7//5 19//5
f  19//5 7//5 9//5
f  19//6 9//6 25//6
f  25//6 9//6 11//6
f  25//7 11//7 27//7
f  27//7 11//7 13//7
f  27//8 13//8 28//8
f  28//8 13//8 14//8
f  28//9 14//9 26//9
f  26//9 14//9 12//9
f  26//10 12//10 24//10
f  24//10 12//10 10//10
f  24//11 10//11 18//11
f  18//11 10//11 8//11
f  18//12 8//12 16//12
f  16//12 8//12 6//12
f  16//13 6//13 20//13
f  20//13 6//13 4//13
f  20//14 4//14 22//14
f  22//14 4//14 2//14
f  22//15 2//15 23//15
f  23//15 2//15 1//15
f  23//16 1//16 21//16
f  21//16 1//16 3//16
f  21//17 3//17 17//17
f  17//17 3//17 5//17
f  17//18 5//18 15//18
f  15//18 5//18 7//18

